<svg width="31" height="30" viewBox="0 0 31 30" fill="none" xmlns="http://www.w3.org/2000/svg">
<path d="M22.4191 13.3713C22.0401 13.7526 21.7498 14.2128 21.569 14.719C21.3882 15.2253 21.3213 15.7652 21.373 16.3003L21.355 16.2823C21.4082 16.9122 21.3232 17.546 21.1061 18.1397C20.889 18.7333 20.5451 19.2724 20.0982 19.7194C19.6512 20.1663 19.112 20.5104 18.5183 20.7274C17.9247 20.9445 17.2908 21.0295 16.661 20.9763L16.6791 20.9943C15.9257 20.9242 15.1689 21.0881 14.512 21.4638C13.8552 21.8395 13.3302 22.4086 13.0087 23.0936C12.6872 23.7786 12.5847 24.546 12.7153 25.2914C12.846 26.0367 13.2033 26.7236 13.7386 27.2584C14.2739 27.7932 14.9611 28.1499 15.7065 28.2798C16.452 28.4098 17.2193 28.3066 17.904 27.9845C18.5887 27.6623 19.1573 27.1369 19.5324 26.4797C19.9075 25.8225 20.0708 25.0657 20 24.3123L20.019 24.3303C19.9658 23.7005 20.0507 23.0666 20.2678 22.4729C20.4849 21.8793 20.829 21.3402 21.2759 20.8932C21.7229 20.4463 22.262 20.1022 22.8556 19.8852C23.4493 19.6681 24.0831 19.5831 24.713 19.6363L24.694 19.6183C25.3094 19.6736 25.929 19.5727 26.4951 19.3249C27.0611 19.0771 27.5554 18.6904 27.9322 18.2007C28.309 17.711 28.5563 17.134 28.6507 16.5234C28.7452 15.9127 28.6839 15.2881 28.4727 14.7073C28.2615 14.1266 27.9071 13.6086 27.4424 13.2013C26.9777 12.794 26.4178 12.5106 25.8144 12.3774C25.211 12.2442 24.5837 12.2654 23.9907 12.4391C23.3977 12.6129 22.8582 12.9335 22.4221 13.3713H22.4191Z" fill="black"/>
<path d="M15.0422 18.636L15.0232 18.618C15.5585 18.6719 16.0991 18.6062 16.606 18.4256C17.1128 18.245 17.5732 17.9541 17.9538 17.5738C18.3343 17.1935 18.6257 16.7333 18.8066 16.2266C18.9876 15.7199 19.0537 15.1794 19.0002 14.644L19.0192 14.662C18.966 14.0321 19.051 13.3983 19.268 12.8046C19.4851 12.211 19.8292 11.6719 20.2761 11.2249C20.7231 10.778 21.2622 10.4339 21.8558 10.2169C22.4495 9.99976 23.0833 9.91483 23.7132 9.968L23.6942 9.95C24.4477 10.0208 25.2046 9.85736 25.8618 9.4821C26.5191 9.10684 27.0445 8.53797 27.3665 7.8531C27.6885 7.16824 27.7914 6.40071 27.6612 5.6552C27.531 4.90969 27.174 4.22251 26.6388 3.68737C26.1037 3.15224 25.4165 2.7952 24.671 2.66498C23.9255 2.53475 23.158 2.63766 22.4731 2.95968C21.7882 3.28169 21.2194 3.80714 20.8441 4.46435C20.4688 5.12155 20.3054 5.87852 20.3762 6.632L20.3582 6.613C20.4115 7.24289 20.3267 7.87683 20.1097 8.47055C19.8927 9.06427 19.5486 9.60346 19.1017 10.0505C18.6547 10.4974 18.1155 10.8415 17.5218 11.0585C16.928 11.2755 16.2941 11.3603 15.6642 11.307L15.6822 11.326C15.1469 11.2721 14.6062 11.3378 14.0994 11.5184C13.5926 11.6989 13.1322 11.9899 12.7516 12.3702C12.371 12.7505 12.0797 13.2107 11.8987 13.7174C11.7178 14.2241 11.6517 14.7646 11.7052 15.3L11.6872 15.282C11.7402 15.9118 11.6551 16.5456 11.438 17.1392C11.2208 17.7327 10.8768 18.2718 10.4299 18.7187C9.98291 19.1656 9.44387 19.5096 8.85031 19.7268C8.25675 19.9439 7.62296 20.029 6.99315 19.976L7.01115 19.994C6.25767 19.9232 5.5007 20.0866 4.84349 20.4619C4.18629 20.8372 3.66084 21.406 3.33883 22.0909C3.01681 22.7758 2.91389 23.5433 3.04412 24.2888C3.17435 25.0343 3.53139 25.7215 4.06652 26.2566C4.60166 26.7918 5.28884 27.1488 6.03435 27.279C6.77986 27.4092 7.54739 27.3063 8.23226 26.9843C8.91712 26.6623 9.48599 26.1369 9.86125 25.4797C10.2366 24.8224 10.4 24.0655 10.3292 23.312L10.3482 23.33C10.295 22.7001 10.38 22.0663 10.5971 21.4726C10.8141 20.879 11.1582 20.3399 11.6051 19.8929C12.0521 19.446 12.5912 19.1019 13.1848 18.8849C13.7785 18.6678 14.4123 18.5828 15.0422 18.636Z" fill="black"/>
<path d="M8.34021 16.6289C8.71923 16.2477 9.00941 15.7875 9.19005 15.2812C9.37069 14.7749 9.43733 14.2349 9.38521 13.6999L9.4042 13.7179C9.351 13.0879 9.43596 12.4538 9.65317 11.86C9.87038 11.2662 10.2146 10.727 10.6618 10.28C11.109 9.83306 11.6483 9.48907 12.2422 9.27212C12.8361 9.05516 13.4702 8.97046 14.1002 9.02394L14.0812 9.00594C14.8344 9.07651 15.5911 8.91302 16.248 8.53778C16.9049 8.16255 17.43 7.59382 17.7519 6.90917C18.0737 6.22451 18.1765 5.45726 18.0463 4.71203C17.9161 3.9668 17.5591 3.27988 17.0242 2.74494C16.4893 2.21 15.8023 1.85308 15.0571 1.72286C14.3119 1.59263 13.5446 1.69545 12.86 2.01727C12.1753 2.33909 11.6066 2.86426 11.2314 3.52116C10.8561 4.17806 10.6926 4.93472 10.7632 5.68794L10.7452 5.66994C10.7984 6.29979 10.7134 6.93366 10.4963 7.5273C10.2792 8.12094 9.93523 8.66005 9.48827 9.10701C9.04132 9.55397 8.5022 9.898 7.90856 10.115C7.31492 10.3321 6.68106 10.4171 6.05121 10.3639L6.06921 10.3819C5.45378 10.3267 4.83437 10.4278 4.26839 10.6757C3.70241 10.9236 3.20816 11.3104 2.83145 11.8002C2.45474 12.2899 2.20776 12.8669 2.11338 13.4775C2.01901 14.0882 2.0803 14.7128 2.29157 15.2934C2.50284 15.8741 2.85727 16.392 3.322 16.7992C3.78673 17.2065 4.34673 17.4898 4.95011 17.623C5.55348 17.7561 6.18071 17.7348 6.77368 17.5611C7.36664 17.3873 7.90614 17.0667 8.3422 16.6289H8.34021Z" fill="black"/>
</svg>
