<svg xmlns="http://www.w3.org/2000/svg" width="48" height="48" viewBox="0 0 48 48" fill="none"><metadata><rdf:RDF xmlns:rdf="http://www.w3.org/1999/02/22-rdf-syntax-ns#" xmlns:dc="http://purl.org/dc/elements/1.1/"><rdf:Description><dc:creator>RealFaviconGenerator</dc:creator><dc:source>https://realfavicongenerator.net</dc:source></rdf:Description></rdf:RDF></metadata><g clip-path="url(#clip0_91_31)">
<mask id="mask0_91_31" style="mask-type:luminance" maskUnits="userSpaceOnUse" x="0" y="0" width="48" height="48">
<path d="M36 0H12C5.37258 0 0 5.37258 0 12V36C0 42.6274 5.37258 48 12 48H36C42.6274 48 48 42.6274 48 36V12C48 5.37258 42.6274 0 36 0Z" fill="white"></path>
</mask>
<g mask="url(#mask0_91_31)">
<path d="M36 0H12C5.37258 0 0 5.37258 0 12V36C0 42.6274 5.37258 48 12 48H36C42.6274 48 48 42.6274 48 36V12C48 5.37258 42.6274 0 36 0Z" fill="black"></path>
<path d="M48 0H0V48H48V0Z" fill="url(#paint0_linear_91_31)"></path>
<g filter="url(#filter0_d_91_31)">
<path d="M20.4375 9.75C20.4375 15.6525 15.6525 20.4375 9.75 20.4375V27.5625H20.4375V38.25H27.5625C27.5625 32.3475 32.3475 27.5625 38.25 27.5625V20.4375H27.5625V9.75H20.4375Z" fill="url(#paint1_linear_91_31)"></path>
</g>
</g>
</g><defs>
<filter id="filter0_d_91_31" x="5.25" y="7.5" width="37.5" height="37.5" filterUnits="userSpaceOnUse" color-interpolation-filters="sRGB">
<feFlood flood-opacity="0" result="BackgroundImageFix"></feFlood>
<feColorMatrix in="SourceAlpha" type="matrix" values="0 0 0 0 0 0 0 0 0 0 0 0 0 0 0 0 0 0 127 0" result="hardAlpha"></feColorMatrix>
<feOffset dy="2.25"></feOffset>
<feGaussianBlur stdDeviation="2.25"></feGaussianBlur>
<feComposite in2="hardAlpha" operator="out"></feComposite>
<feColorMatrix type="matrix" values="0 0 0 0 0.141176 0 0 0 0 0.141176 0 0 0 0 0.141176 0 0 0 0.1 0"></feColorMatrix>
<feBlend mode="normal" in2="BackgroundImageFix" result="effect1_dropShadow_91_31"></feBlend>
<feBlend mode="normal" in="SourceGraphic" in2="effect1_dropShadow_91_31" result="shape"></feBlend>
</filter>
<linearGradient id="paint0_linear_91_31" x1="24" y1="5.36442e-07" x2="26" y2="48" gradientUnits="userSpaceOnUse">
<stop stop-color="white" stop-opacity="0"></stop>
<stop offset="1" stop-color="white" stop-opacity="0.12"></stop>
</linearGradient>
<linearGradient id="paint1_linear_91_31" x1="24" y1="9.75" x2="24" y2="38.25" gradientUnits="userSpaceOnUse">
<stop stop-color="white" stop-opacity="0.8"></stop>
<stop offset="1" stop-color="white" stop-opacity="0.5"></stop>
</linearGradient>
<clipPath id="clip0_91_31">
<rect width="48" height="48" fill="white"></rect>
</clipPath>
</defs></svg>