<svg width="1329" height="132" viewBox="0 0 1329 132" fill="none" xmlns="http://www.w3.org/2000/svg">
<path d="M19.0132 125.92L18.438 127.02L18.438 127.02L19.0132 125.92ZM6.85513 114.477L5.77703 115.093L5.78358 115.104L6.85513 114.477ZM3.10042 90.161L3.97839 91.039L3.97839 91.039L3.10042 90.161ZM26.7014 90.161L25.7081 90.906L25.8146 91.0479L25.9565 91.1543L26.7014 90.161ZM30.0985 105.001L29.124 105.77L29.1362 105.786L29.1488 105.801L30.0985 105.001ZM44.4022 105.18L43.4742 104.355L43.4742 104.355L44.4022 105.18ZM43.687 87.6579L42.7473 88.4694L42.7671 88.4923L42.7879 88.5142L43.687 87.6579ZM29.9198 76.215L30.648 75.2093L30.6452 75.2073L29.9198 76.215ZM5.96115 52.4351L7.05523 51.8481L7.05523 51.8481L5.96115 52.4351ZM11.5038 11.1334L12.3647 12.0281L11.5038 11.1334ZM61.7454 11.491L60.8756 12.3771L60.8756 12.3771L61.7454 11.491ZM47.0841 42.2438L46.0908 42.9888L46.1972 43.1307L46.3391 43.2371L47.0841 42.2438ZM43.687 27.0462L42.7125 27.8155L42.7349 27.844L42.759 27.8711L43.687 27.0462ZM29.3834 26.8674L28.4295 26.0725L28.4249 26.0781L29.3834 26.8674ZM30.2773 44.9257L31.2346 44.135L31.2346 44.135L30.2773 44.9257ZM43.5082 56.3686L42.7661 57.3641L42.7725 57.3689L42.7789 57.3735L43.5082 56.3686ZM60.1362 69.5995L59.288 70.5062L59.303 70.5204L59.3186 70.5339L60.1362 69.5995ZM68.8972 80.8636L67.7803 81.4061L67.7865 81.4189L67.793 81.4315L68.8972 80.8636ZM62.4605 120.735L61.5993 119.841L61.5993 119.841L62.4605 120.735ZM37.2504 128.791C30.5035 128.791 24.6279 127.454 19.5884 124.82L18.438 127.02C23.8879 129.869 30.1704 131.274 37.2504 131.274V128.791ZM19.5884 124.82C14.5406 122.181 10.6642 118.527 7.92668 113.85L5.78358 115.104C8.76751 120.202 12.9965 124.176 18.438 127.02L19.5884 124.82ZM7.93317 113.861C5.19171 109.064 3.80567 103.559 3.80567 97.3128H1.3224C1.3224 103.94 2.79709 109.878 5.77709 115.093L7.93317 113.861ZM3.80567 97.3128V91.5914H1.3224V97.3128H3.80567ZM3.80567 91.5914C3.80567 91.2614 3.89487 91.1225 3.97839 91.039L2.22245 89.283C1.59079 89.9147 1.3224 90.7294 1.3224 91.5914H3.80567ZM3.97839 91.039C4.25566 90.7617 4.48722 90.6875 4.70958 90.6875V88.2042C3.73997 88.2042 2.89876 88.6067 2.22245 89.283L3.97839 91.039ZM4.70958 90.6875H25.2711V88.2042H4.70958V90.6875ZM25.2711 90.6875C25.4762 90.6875 25.585 90.7418 25.7081 90.906L27.6947 89.416C27.1027 88.6266 26.2579 88.2042 25.2711 88.2042V90.6875ZM25.9565 91.1543C26.1206 91.2774 26.175 91.3862 26.175 91.5914H28.6583C28.6583 90.6046 28.2359 89.7598 27.4464 89.1677L25.9565 91.1543ZM26.175 91.5914V96.0613H28.6583V91.5914H26.175ZM26.175 96.0613C26.175 99.9562 27.1196 103.231 29.124 105.77L31.0731 104.232C29.5016 102.241 28.6583 99.5566 28.6583 96.0613H26.175ZM29.1488 105.801C31.2824 108.334 34.0089 109.64 37.2504 109.64V107.157C34.7704 107.157 32.729 106.197 31.0483 104.201L29.1488 105.801ZM37.2504 109.64C40.4672 109.64 43.1884 108.414 45.3302 106.005L43.4742 104.355C41.8017 106.236 39.755 107.157 37.2504 107.157V109.64ZM45.3302 106.005C47.4789 103.587 48.5046 100.472 48.5046 96.7764H46.0213C46.0213 99.9943 45.1398 102.481 43.4742 104.355L45.3302 106.005ZM48.5046 96.7764C48.5046 92.8939 47.1982 89.5443 44.5861 86.8016L42.7879 88.5142C44.9437 90.7778 46.0213 93.5072 46.0213 96.7764H48.5046ZM44.6267 86.8463C42.257 84.1025 37.5589 80.2137 30.648 75.2093L29.1915 77.2206C36.1075 82.2287 40.5875 85.9686 42.7473 88.4694L44.6267 86.8463ZM30.6452 75.2073C24.7069 70.9317 19.9189 67.1468 16.2696 63.8506L14.6051 65.6935C18.346 69.0723 23.2129 72.916 29.1943 77.2226L30.6452 75.2073ZM16.2696 63.8506C12.6916 60.6189 9.61776 56.6237 7.05523 51.8481L4.86707 53.0222C7.5492 58.0207 10.7928 62.2501 14.6051 65.6935L16.2696 63.8506ZM7.05523 51.8481C4.54427 47.1686 3.26928 41.7144 3.26928 35.4496H0.786012C0.786012 42.058 2.13336 47.9276 4.86707 53.0222L7.05523 51.8481ZM3.26928 35.4496C3.26928 25.5982 6.32892 17.8361 12.3647 12.0281L10.6429 10.2387C4.04382 16.5887 0.786012 25.0375 0.786012 35.4496H3.26928ZM12.3647 12.0281C18.412 6.20899 26.3682 3.25644 36.3564 3.25644V0.773167C25.8427 0.773167 17.2305 3.89966 10.6429 10.2387L12.3647 12.0281ZM36.3564 3.25644C46.5776 3.25644 54.709 6.32463 60.8756 12.3771L62.6151 10.6048C55.9085 4.02241 47.1139 0.773167 36.3564 0.773167V3.25644ZM60.8756 12.3771C67.0411 18.4284 70.1587 26.3762 70.1587 36.3435H72.642C72.642 25.809 69.3229 17.1884 62.6151 10.6048L60.8756 12.3771ZM70.1587 36.3435V40.6346H72.642V36.3435H70.1587ZM70.1587 40.6346C70.1587 40.857 70.0844 41.0886 69.8072 41.3658L71.5631 43.1218C72.2394 42.4455 72.642 41.6043 72.642 40.6346H70.1587ZM69.8072 41.3658C69.7237 41.4493 69.5847 41.5385 69.2548 41.5385V44.0218C70.1168 44.0218 70.9314 43.7534 71.5631 43.1218L69.8072 41.3658ZM69.2548 41.5385H48.6933V44.0218H69.2548V41.5385ZM48.6933 41.5385C48.366 41.5385 48.091 41.4469 47.8291 41.2505L46.3391 43.2371C47.0309 43.7559 47.8287 44.0218 48.6933 44.0218V41.5385ZM48.0774 41.4988C47.881 41.2369 47.7894 40.962 47.7894 40.6346H45.3061C45.3061 41.4993 45.572 42.2971 46.0908 42.9888L48.0774 41.4988ZM47.7894 40.6346V35.8072H45.3061V40.6346H47.7894ZM47.7894 35.8072C47.7894 31.8977 46.7768 28.6533 44.615 26.2213L42.759 27.8711C44.4115 29.7302 45.3061 32.3264 45.3061 35.8072H47.7894ZM44.6615 26.2768C42.6188 23.6893 39.8031 22.4074 36.3564 22.4074V24.8907C39.1079 24.8907 41.1793 25.8736 42.7125 27.8155L44.6615 26.2768ZM36.3564 22.4074C33.1375 22.4074 30.4599 23.636 28.4295 26.0725L30.3372 27.6623C31.8827 25.8076 33.8538 24.8907 36.3564 24.8907V22.4074ZM28.4249 26.0781C26.511 28.4021 25.6386 31.5821 25.6386 35.4496H28.1219C28.1219 31.9268 28.9182 29.3854 30.3418 27.6567L28.4249 26.0781ZM25.6386 35.4496C25.6386 39.3123 26.8704 42.7511 29.3201 45.7165L31.2346 44.135C29.1548 41.6173 28.1219 38.7386 28.1219 35.4496H25.6386ZM29.3201 45.7165C31.6885 48.5836 36.2065 52.4742 42.7661 57.3641L44.2503 55.3732C37.6983 50.4889 33.3956 46.751 31.2346 44.135L29.3201 45.7165ZM42.7789 57.3735C50.1549 62.727 55.6489 67.102 59.288 70.5062L60.9844 68.6928C57.2333 65.1836 51.642 60.738 44.2375 55.3638L42.7789 57.3735ZM59.3186 70.5339C63.0196 73.7723 65.833 77.3969 67.7803 81.4061L70.014 80.3212C67.9087 75.9866 64.8814 72.1017 60.9538 68.6651L59.3186 70.5339ZM67.793 81.4315C69.8305 85.3933 70.8739 90.1369 70.8739 95.7037H73.3571C73.3571 89.8275 72.255 84.6778 70.0014 80.2958L67.793 81.4315ZM70.8739 95.7037C70.8739 105.919 67.7506 113.917 61.5993 119.841L63.3218 121.629C70.0438 115.156 73.3571 106.467 73.3571 95.7037H70.8739ZM61.5993 119.841C55.4311 125.78 47.3548 128.791 37.2504 128.791V131.274C47.8863 131.274 56.6167 128.086 63.3218 121.629L61.5993 119.841ZM148.875 24.543L149.753 25.421L149.753 25.421L148.875 24.543ZM132.962 55.8323L131.969 56.5772L132.075 56.7191L132.217 56.8256L132.962 55.8323ZM148.875 107.683L147.881 108.428L147.988 108.57L148.13 108.676L148.875 107.683ZM148.875 128.066L147.997 127.188L147.997 127.188L148.875 128.066ZM84.5083 128.066L83.515 128.811L83.6214 128.953L83.7633 129.059L84.5083 128.066ZM84.5083 4.16034L83.6303 3.28237L83.6303 3.28238L84.5083 4.16034ZM148.875 4.16034L147.881 4.90532L147.988 5.04722L148.13 5.15365L148.875 4.16034ZM148.348 22.9339C148.348 23.1562 148.274 23.3878 147.997 23.6651L149.753 25.421C150.429 24.7447 150.831 23.9035 150.831 22.9339H148.348ZM147.997 23.6651C147.913 23.7486 147.774 23.8378 147.444 23.8378V26.3211C148.306 26.3211 149.121 26.0527 149.753 25.421L147.997 23.6651ZM147.444 23.8378H110.076V26.3211H147.444V23.8378ZM110.076 23.8378C109.587 23.8378 108.992 23.961 108.528 24.425C108.064 24.8889 107.94 25.484 107.94 25.9734H110.424C110.424 25.8668 110.45 26.0149 110.284 26.1809C110.118 26.3469 109.969 26.3211 110.076 26.3211V23.8378ZM107.94 25.9734V54.2231H110.424V25.9734H107.94ZM107.94 54.2231C107.94 54.7125 108.064 55.3076 108.528 55.7716C108.992 56.2355 109.587 56.3587 110.076 56.3587V53.8754C109.969 53.8754 110.118 53.8496 110.284 54.0156C110.45 54.1816 110.424 54.3297 110.424 54.2231H107.94ZM110.076 56.3587H131.532V53.8754H110.076V56.3587ZM131.532 56.3587C131.737 56.3587 131.845 56.4131 131.969 56.5772L133.955 55.0873C133.363 54.2978 132.518 53.8754 131.532 53.8754V56.3587ZM132.217 56.8256C132.381 56.9487 132.435 57.0575 132.435 57.2626H134.919C134.919 56.2758 134.496 55.431 133.707 54.839L132.217 56.8256ZM132.435 57.2626V74.6058H134.919V57.2626H132.435ZM132.435 74.6058C132.435 74.8281 132.361 75.0597 132.084 75.337L133.84 77.0929C134.516 76.4166 134.919 75.5754 134.919 74.6058H132.435ZM132.084 75.337C132 75.4205 131.861 75.5097 131.532 75.5097V77.993C132.394 77.993 133.208 77.7246 133.84 77.0929L132.084 75.337ZM131.532 75.5097H110.076V77.993H131.532V75.5097ZM110.076 75.5097C109.587 75.5097 108.992 75.6329 108.528 76.0969C108.064 76.5608 107.94 77.1559 107.94 77.6453H110.424C110.424 77.5387 110.45 77.6868 110.284 77.8528C110.118 78.0188 109.969 77.993 110.076 77.993V75.5097ZM107.94 77.6453V106.074H110.424V77.6453H107.94ZM107.94 106.074C107.94 106.563 108.064 107.158 108.528 107.622C108.992 108.086 109.587 108.209 110.076 108.209V105.726C109.969 105.726 110.118 105.7 110.284 105.866C110.45 106.032 110.424 106.18 110.424 106.074H107.94ZM110.076 108.209H147.444V105.726H110.076V108.209ZM147.444 108.209C147.649 108.209 147.758 108.264 147.881 108.428L149.868 106.938C149.276 106.149 148.431 105.726 147.444 105.726V108.209ZM148.13 108.676C148.294 108.799 148.348 108.908 148.348 109.113H150.831C150.831 108.127 150.409 107.282 149.62 106.69L148.13 108.676ZM148.348 109.113V126.457H150.831V109.113H148.348ZM148.348 126.457C148.348 126.679 148.274 126.91 147.997 127.188L149.753 128.944C150.429 128.267 150.831 127.426 150.831 126.457H148.348ZM147.997 127.188C147.913 127.271 147.774 127.36 147.444 127.36V129.844C148.306 129.844 149.121 129.575 149.753 128.944L147.997 127.188ZM147.444 127.36H86.1174V129.844H147.444V127.36ZM86.1174 127.36C85.7901 127.36 85.5151 127.269 85.2533 127.072L83.7633 129.059C84.455 129.578 85.2528 129.844 86.1174 129.844V127.36ZM85.5016 127.321C85.3052 127.059 85.2135 126.784 85.2135 126.457H82.7303C82.7303 127.321 82.9962 128.119 83.515 128.811L85.5016 127.321ZM85.2135 126.457V5.59071H82.7303V126.457H85.2135ZM85.2135 5.59071C85.2135 5.26075 85.3027 5.12183 85.3862 5.03831L83.6303 3.28238C82.9986 3.91404 82.7303 4.7287 82.7303 5.59071H85.2135ZM85.3862 5.03831C85.6635 4.76104 85.8951 4.68679 86.1174 4.68679V2.20352C85.1478 2.20352 84.3066 2.60607 83.6303 3.28237L85.3862 5.03831ZM86.1174 4.68679H147.444V2.20352H86.1174V4.68679ZM147.444 4.68679C147.649 4.68679 147.758 4.74118 147.881 4.90532L149.868 3.41536C149.276 2.62592 148.431 2.20352 147.444 2.20352V4.68679ZM148.13 5.15365C148.294 5.27676 148.348 5.38554 148.348 5.59071H150.831C150.831 4.60391 150.409 3.75912 149.62 3.16704L148.13 5.15365ZM148.348 5.59071V22.9339H150.831V5.59071H148.348ZM162.906 128.066L161.913 128.811L162.019 128.953L162.161 129.059L162.906 128.066ZM162.906 4.16034L162.028 3.28237L162.028 3.28238L162.906 4.16034ZM186.865 4.16034L185.871 4.90532L185.978 5.04722L186.12 5.15365L186.865 4.16034ZM227.451 107.683L226.458 108.428L226.564 108.57L226.706 108.676L227.451 107.683ZM227.451 128.066L226.573 127.188L226.573 127.188L227.451 128.066ZM164.515 127.36C164.188 127.36 163.913 127.269 163.651 127.072L162.161 129.059C162.853 129.578 163.65 129.844 164.515 129.844V127.36ZM163.899 127.321C163.703 127.059 163.611 126.784 163.611 126.457H161.128C161.128 127.321 161.394 128.119 161.913 128.811L163.899 127.321ZM163.611 126.457V5.59071H161.128V126.457H163.611ZM163.611 5.59071C163.611 5.26075 163.7 5.12183 163.784 5.03831L162.028 3.28238C161.396 3.91404 161.128 4.7287 161.128 5.59071H163.611ZM163.784 5.03831C164.061 4.76104 164.293 4.68679 164.515 4.68679V2.20352C163.545 2.20352 162.704 2.60607 162.028 3.28237L163.784 5.03831ZM164.515 4.68679H185.434V2.20352H164.515V4.68679ZM185.434 4.68679C185.639 4.68679 185.748 4.74118 185.871 4.90532L187.858 3.41536C187.266 2.62592 186.421 2.20352 185.434 2.20352V4.68679ZM186.12 5.15365C186.284 5.27675 186.338 5.38554 186.338 5.59071H188.821C188.821 4.60391 188.399 3.75912 187.61 3.16704L186.12 5.15365ZM186.338 5.59071V106.074H188.821V5.59071H186.338ZM186.338 106.074C186.338 106.563 186.461 107.158 186.925 107.622C187.389 108.086 187.984 108.209 188.474 108.209V105.726C188.367 105.726 188.515 105.7 188.681 105.866C188.847 106.032 188.821 106.18 188.821 106.074H186.338ZM188.474 108.209H226.021V105.726H188.474V108.209ZM226.021 108.209C226.226 108.209 226.335 108.264 226.458 108.428L228.444 106.938C227.852 106.149 227.008 105.726 226.021 105.726V108.209ZM226.706 108.676C226.87 108.799 226.925 108.908 226.925 109.113H229.408C229.408 108.127 228.986 107.282 228.196 106.69L226.706 108.676ZM226.925 109.113V126.457H229.408V109.113H226.925ZM226.925 126.457C226.925 126.679 226.85 126.91 226.573 127.188L228.329 128.944C229.005 128.267 229.408 127.426 229.408 126.457H226.925ZM226.573 127.188C226.49 127.271 226.351 127.36 226.021 127.36V129.844C226.883 129.844 227.697 129.575 228.329 128.944L226.573 127.188ZM226.021 127.36H164.515V129.844H226.021V127.36ZM303.4 24.543L304.278 25.421L304.278 25.421L303.4 24.543ZM287.487 55.8323L286.494 56.5772L286.6 56.7191L286.742 56.8256L287.487 55.8323ZM303.4 107.683L302.407 108.428L302.513 108.57L302.655 108.676L303.4 107.683ZM303.4 128.066L302.522 127.188L302.522 127.188L303.4 128.066ZM239.034 128.066L238.04 128.811L238.147 128.953L238.289 129.059L239.034 128.066ZM239.034 4.16034L238.156 3.28237L238.156 3.28238L239.034 4.16034ZM303.4 4.16034L302.407 4.90532L302.513 5.04722L302.655 5.15365L303.4 4.16034ZM302.874 22.9339C302.874 23.1562 302.799 23.3878 302.522 23.6651L304.278 25.421C304.954 24.7447 305.357 23.9035 305.357 22.9339H302.874ZM302.522 23.6651C302.439 23.7486 302.3 23.8378 301.97 23.8378V26.3211C302.832 26.3211 303.646 26.0527 304.278 25.421L302.522 23.6651ZM301.97 23.8378H264.601V26.3211H301.97V23.8378ZM264.601 23.8378C264.112 23.8378 263.517 23.961 263.053 24.425C262.589 24.8889 262.466 25.484 262.466 25.9734H264.949C264.949 25.8668 264.975 26.0149 264.809 26.1809C264.643 26.3469 264.495 26.3211 264.601 26.3211V23.8378ZM262.466 25.9734V54.2231H264.949V25.9734H262.466ZM262.466 54.2231C262.466 54.7125 262.589 55.3076 263.053 55.7716C263.517 56.2355 264.112 56.3587 264.601 56.3587V53.8754C264.495 53.8754 264.643 53.8496 264.809 54.0156C264.975 54.1816 264.949 54.3297 264.949 54.2231H262.466ZM264.601 56.3587H286.057V53.8754H264.601V56.3587ZM286.057 56.3587C286.262 56.3587 286.371 56.4131 286.494 56.5772L288.481 55.0873C287.889 54.2978 287.044 53.8754 286.057 53.8754V56.3587ZM286.742 56.8256C286.906 56.9487 286.961 57.0575 286.961 57.2626H289.444C289.444 56.2758 289.022 55.431 288.232 54.839L286.742 56.8256ZM286.961 57.2626V74.6058H289.444V57.2626H286.961ZM286.961 74.6058C286.961 74.8281 286.887 75.0597 286.609 75.337L288.365 77.0929C289.042 76.4166 289.444 75.5754 289.444 74.6058H286.961ZM286.609 75.337C286.526 75.4205 286.387 75.5097 286.057 75.5097V77.993C286.919 77.993 287.734 77.7246 288.365 77.0929L286.609 75.337ZM286.057 75.5097H264.601V77.993H286.057V75.5097ZM264.601 75.5097C264.112 75.5097 263.517 75.6329 263.053 76.0969C262.589 76.5608 262.466 77.1559 262.466 77.6453H264.949C264.949 77.5387 264.975 77.6868 264.809 77.8528C264.643 78.0188 264.495 77.993 264.601 77.993V75.5097ZM262.466 77.6453V106.074H264.949V77.6453H262.466ZM262.466 106.074C262.466 106.563 262.589 107.158 263.053 107.622C263.517 108.086 264.112 108.209 264.601 108.209V105.726C264.495 105.726 264.643 105.7 264.809 105.866C264.975 106.032 264.949 106.18 264.949 106.074H262.466ZM264.601 108.209H301.97V105.726H264.601V108.209ZM301.97 108.209C302.175 108.209 302.284 108.264 302.407 108.428L304.393 106.938C303.801 106.149 302.957 105.726 301.97 105.726V108.209ZM302.655 108.676C302.819 108.799 302.874 108.908 302.874 109.113H305.357C305.357 108.127 304.935 107.282 304.145 106.69L302.655 108.676ZM302.874 109.113V126.457H305.357V109.113H302.874ZM302.874 126.457C302.874 126.679 302.799 126.91 302.522 127.188L304.278 128.944C304.954 128.267 305.357 127.426 305.357 126.457H302.874ZM302.522 127.188C302.439 127.271 302.3 127.36 301.97 127.36V129.844C302.832 129.844 303.646 129.575 304.278 128.944L302.522 127.188ZM301.97 127.36H240.643V129.844H301.97V127.36ZM240.643 127.36C240.316 127.36 240.041 127.269 239.779 127.072L238.289 129.059C238.98 129.578 239.778 129.844 240.643 129.844V127.36ZM240.027 127.321C239.831 127.059 239.739 126.784 239.739 126.457H237.256C237.256 127.321 237.522 128.119 238.04 128.811L240.027 127.321ZM239.739 126.457V5.59071H237.256V126.457H239.739ZM239.739 5.59071C239.739 5.26075 239.828 5.12183 239.912 5.03831L238.156 3.28238C237.524 3.91404 237.256 4.7287 237.256 5.59071H239.739ZM239.912 5.03831C240.189 4.76104 240.421 4.68679 240.643 4.68679V2.20352C239.673 2.20352 238.832 2.60607 238.156 3.28237L239.912 5.03831ZM240.643 4.68679H301.97V2.20352H240.643V4.68679ZM301.97 4.68679C302.175 4.68679 302.284 4.74118 302.407 4.90532L304.393 3.41536C303.801 2.62592 302.957 2.20352 301.97 2.20352V4.68679ZM302.655 5.15365C302.819 5.27676 302.874 5.38554 302.874 5.59071H305.357C305.357 4.60391 304.935 3.75912 304.145 3.16704L302.655 5.15365ZM302.874 5.59071V22.9339H305.357V5.59071H302.874ZM324.762 120.556L323.884 121.434L323.892 121.442L323.9 121.45L324.762 120.556ZM324.762 11.491L323.9 10.5968L323.892 10.6048L324.762 11.491ZM376.613 11.491L375.743 12.3771L375.751 12.385L376.613 11.491ZM385.731 40.4558L384.853 39.5779L384.853 39.5779L385.731 40.4558ZM384.301 40.9922V39.7506H384.274L384.248 39.7517L384.301 40.9922ZM363.382 41.8862V43.1278H363.408L363.435 43.1267L363.382 41.8862ZM343.178 105.359L342.25 106.184L342.262 106.197L342.274 106.21L343.178 105.359ZM358.376 105.359L359.28 106.21L359.292 106.197L359.304 106.184L358.376 105.359ZM361.773 90.6974L360.895 89.8194L360.895 89.8194L361.773 90.6974ZM363.382 89.9822L363.435 88.7417L363.408 88.7406H363.382V89.9822ZM384.301 90.8762L384.248 92.1167L384.274 92.1178H384.301V90.8762ZM376.613 120.556L377.474 121.45L377.483 121.442L376.613 120.556ZM350.687 128.791C340.22 128.791 331.907 125.717 325.624 119.662L323.9 121.45C330.728 128.03 339.7 131.274 350.687 131.274V128.791ZM325.64 119.678C319.477 113.516 316.349 105.271 316.349 94.8097H313.865C313.865 105.803 317.173 114.724 323.884 121.434L325.64 119.678ZM316.349 94.8097V36.8799H313.865V94.8097H316.349ZM316.349 36.8799C316.349 26.5413 319.475 18.4201 325.632 12.3771L323.892 10.6048C317.176 17.1967 313.865 26.0015 313.865 36.8799H316.349ZM325.624 12.385C331.907 6.32978 340.22 3.25644 350.687 3.25644V0.773167C339.7 0.773167 330.728 4.01726 323.9 10.5969L325.624 12.385ZM350.687 3.25644C361.279 3.25644 369.584 6.33243 375.743 12.3771L377.482 10.6048C370.768 4.01461 361.789 0.773167 350.687 0.773167V3.25644ZM375.751 12.385C382.024 18.4295 385.205 26.5481 385.205 36.8799H387.688C387.688 25.9947 384.313 17.1873 377.474 10.5969L375.751 12.385ZM385.205 36.8799V38.8467H387.688V36.8799H385.205ZM385.205 38.8467C385.205 39.069 385.131 39.3006 384.853 39.5779L386.609 41.3338C387.286 40.6575 387.688 39.8163 387.688 38.8467H385.205ZM384.853 39.5779C384.77 39.6614 384.631 39.7506 384.301 39.7506V42.2339C385.163 42.2339 385.978 41.9655 386.609 41.3338L384.853 39.5779ZM384.248 39.7517L363.329 40.6457L363.435 43.1267L384.354 42.2327L384.248 39.7517ZM363.382 40.6446C362.833 40.6446 362.652 40.5164 362.612 40.4792C362.592 40.4608 362.478 40.3545 362.478 39.9195H359.995C359.995 40.7956 360.239 41.6726 360.934 42.3098C361.608 42.9282 362.501 43.1278 363.382 43.1278V40.6446ZM362.478 39.9195V35.2708H359.995V39.9195H362.478ZM362.478 35.2708C362.478 31.5752 361.452 28.4597 359.304 26.0425L357.448 27.6923C359.113 29.5661 359.995 32.0529 359.995 35.2708H362.478ZM359.304 26.0425C357.131 23.5981 354.212 22.4074 350.687 22.4074V24.8907C353.599 24.8907 355.806 25.8456 357.448 27.6923L359.304 26.0425ZM350.687 22.4074C347.265 22.4074 344.413 23.609 342.25 26.0425L344.106 27.6923C345.757 25.8347 347.911 24.8907 350.687 24.8907V22.4074ZM342.25 26.0425C340.101 28.4597 339.076 31.5752 339.076 35.2708H341.559C341.559 32.0529 342.44 29.5661 344.106 27.6923L342.25 26.0425ZM339.076 35.2708V96.9552H341.559V35.2708H339.076ZM339.076 96.9552C339.076 100.651 340.101 103.766 342.25 106.184L344.106 104.534C342.44 102.66 341.559 100.173 341.559 96.9552H339.076ZM342.274 106.21C344.444 108.515 347.289 109.64 350.687 109.64V107.157C347.888 107.157 345.727 106.255 344.082 104.508L342.274 106.21ZM350.687 109.64C354.189 109.64 357.101 108.525 359.28 106.21L357.471 104.508C355.836 106.245 353.622 107.157 350.687 107.157V109.64ZM359.304 106.184C361.452 103.766 362.478 100.651 362.478 96.9552H359.995C359.995 100.173 359.113 102.66 357.448 104.534L359.304 106.184ZM362.478 96.9552V92.1278H359.995V96.9552H362.478ZM362.478 92.1278C362.478 91.7978 362.567 91.6589 362.651 91.5754L360.895 89.8194C360.263 90.4511 359.995 91.2657 359.995 92.1278H362.478ZM362.651 91.5754C362.928 91.2981 363.159 91.2238 363.382 91.2238V88.7406C362.412 88.7406 361.571 89.1431 360.895 89.8194L362.651 91.5754ZM363.329 91.2227L384.248 92.1167L384.354 89.6357L363.435 88.7417L363.329 91.2227ZM384.301 92.1178C384.85 92.1178 385.031 92.246 385.071 92.2832C385.091 92.3016 385.205 92.4079 385.205 92.8429H387.688C387.688 91.9668 387.444 91.0898 386.749 90.4526C386.074 89.8342 385.182 89.6346 384.301 89.6346V92.1178ZM385.205 92.8429V94.8097H387.688V92.8429H385.205ZM385.205 94.8097C385.205 105.265 382.021 113.506 375.743 119.67L377.483 121.442C384.316 114.733 387.688 105.81 387.688 94.8097H385.205ZM375.751 119.662C369.467 125.717 361.155 128.791 350.687 128.791V131.274C361.675 131.274 370.646 128.03 377.474 121.45L375.751 119.662ZM470.635 4.16034L469.642 4.90533L469.749 5.04722L469.89 5.15365L470.635 4.16034ZM470.635 24.543L471.513 25.421L471.513 25.421L470.635 24.543ZM445.246 128.066L444.368 127.188L444.368 127.188L445.246 128.066ZM421.288 128.066L420.295 128.811L420.401 128.953L420.543 129.059L421.288 128.066ZM396.793 24.543L395.8 25.288L395.906 25.4299L396.048 25.5364L396.793 24.543ZM396.793 4.16034L395.915 3.28237L395.915 3.28238L396.793 4.16034ZM469.205 4.68679C469.41 4.68679 469.519 4.74119 469.642 4.90533L471.629 3.41536C471.037 2.62592 470.192 2.20352 469.205 2.20352V4.68679ZM469.89 5.15365C470.055 5.27676 470.109 5.38554 470.109 5.59071H472.592C472.592 4.60391 472.17 3.75912 471.38 3.16704L469.89 5.15365ZM470.109 5.59071V22.9339H472.592V5.59071H470.109ZM470.109 22.9339C470.109 23.1562 470.035 23.3878 469.757 23.6651L471.513 25.421C472.19 24.7447 472.592 23.9035 472.592 22.9339H470.109ZM469.757 23.6651C469.674 23.7486 469.535 23.8378 469.205 23.8378V26.3211C470.067 26.3211 470.882 26.0527 471.513 25.421L469.757 23.6651ZM469.205 23.8378H446.856V26.3211H469.205V23.8378ZM446.856 23.8378C446.366 23.8378 445.771 23.961 445.307 24.425C444.843 24.8889 444.72 25.484 444.72 25.9734H447.203C447.203 25.8668 447.229 26.0149 447.063 26.1809C446.897 26.3469 446.749 26.3211 446.856 26.3211V23.8378ZM444.72 25.9734V126.457H447.203V25.9734H444.72ZM444.72 126.457C444.72 126.679 444.646 126.91 444.368 127.188L446.124 128.944C446.801 128.267 447.203 127.426 447.203 126.457H444.72ZM444.368 127.188C444.285 127.271 444.146 127.36 443.816 127.36V129.844C444.678 129.844 445.493 129.575 446.124 128.944L444.368 127.188ZM443.816 127.36H422.897V129.844H443.816V127.36ZM422.897 127.36C422.57 127.36 422.295 127.269 422.033 127.072L420.543 129.059C421.235 129.578 422.032 129.844 422.897 129.844V127.36ZM422.281 127.321C422.085 127.059 421.993 126.784 421.993 126.457H419.51C419.51 127.321 419.776 128.119 420.295 128.811L422.281 127.321ZM421.993 126.457V25.9734H419.51V126.457H421.993ZM421.993 25.9734C421.993 25.484 421.87 24.8889 421.406 24.425C420.942 23.961 420.347 23.8378 419.857 23.8378V26.3211C419.964 26.3211 419.816 26.3469 419.65 26.1809C419.484 26.0149 419.51 25.8668 419.51 25.9734H421.993ZM419.857 23.8378H398.402V26.3211H419.857V23.8378ZM398.402 23.8378C398.075 23.8378 397.8 23.7461 397.538 23.5497L396.048 25.5364C396.74 26.0551 397.537 26.3211 398.402 26.3211V23.8378ZM397.786 23.7981C397.59 23.5362 397.498 23.2612 397.498 22.9339H395.015C395.015 23.7985 395.281 24.5963 395.8 25.288L397.786 23.7981ZM397.498 22.9339V5.59071H395.015V22.9339H397.498ZM397.498 5.59071C397.498 5.26075 397.587 5.12183 397.671 5.03831L395.915 3.28238C395.283 3.91404 395.015 4.7287 395.015 5.59071H397.498ZM397.671 5.03831C397.948 4.76104 398.18 4.68679 398.402 4.68679V2.20352C397.432 2.20352 396.591 2.60607 395.915 3.28237L397.671 5.03831ZM398.402 4.68679H469.205V2.20352H398.402V4.68679ZM548.371 24.543L549.249 25.421L549.249 25.421L548.371 24.543ZM532.458 55.8323L531.465 56.5772L531.571 56.7191L531.713 56.8256L532.458 55.8323ZM548.371 107.683L547.378 108.428L547.484 108.57L547.626 108.676L548.371 107.683ZM548.371 128.066L547.493 127.188L547.493 127.188L548.371 128.066ZM484.005 128.066L483.011 128.811L483.118 128.953L483.26 129.059L484.005 128.066ZM484.005 4.16034L483.127 3.28237L483.127 3.28238L484.005 4.16034ZM548.371 4.16034L547.378 4.90532L547.484 5.04722L547.626 5.15365L548.371 4.16034ZM547.845 22.9339C547.845 23.1562 547.77 23.3878 547.493 23.6651L549.249 25.421C549.925 24.7447 550.328 23.9035 550.328 22.9339H547.845ZM547.493 23.6651C547.41 23.7486 547.271 23.8378 546.941 23.8378V26.3211C547.803 26.3211 548.617 26.0527 549.249 25.421L547.493 23.6651ZM546.941 23.8378H509.572V26.3211H546.941V23.8378ZM509.572 23.8378C509.083 23.8378 508.488 23.961 508.024 24.425C507.56 24.8889 507.437 25.484 507.437 25.9734H509.92C509.92 25.8668 509.946 26.0149 509.78 26.1809C509.614 26.3469 509.466 26.3211 509.572 26.3211V23.8378ZM507.437 25.9734V54.2231H509.92V25.9734H507.437ZM507.437 54.2231C507.437 54.7125 507.56 55.3076 508.024 55.7716C508.488 56.2355 509.083 56.3587 509.572 56.3587V53.8754C509.466 53.8754 509.614 53.8496 509.78 54.0156C509.946 54.1816 509.92 54.3297 509.92 54.2231H507.437ZM509.572 56.3587H531.028V53.8754H509.572V56.3587ZM531.028 56.3587C531.233 56.3587 531.342 56.4131 531.465 56.5772L533.451 55.0873C532.859 54.2978 532.015 53.8754 531.028 53.8754V56.3587ZM531.713 56.8256C531.877 56.9487 531.932 57.0575 531.932 57.2626H534.415C534.415 56.2758 533.993 55.431 533.203 54.839L531.713 56.8256ZM531.932 57.2626V74.6058H534.415V57.2626H531.932ZM531.932 74.6058C531.932 74.8281 531.857 75.0597 531.58 75.337L533.336 77.0929C534.012 76.4166 534.415 75.5754 534.415 74.6058H531.932ZM531.58 75.337C531.497 75.4205 531.358 75.5097 531.028 75.5097V77.993C531.89 77.993 532.704 77.7246 533.336 77.0929L531.58 75.337ZM531.028 75.5097H509.572V77.993H531.028V75.5097ZM509.572 75.5097C509.083 75.5097 508.488 75.6329 508.024 76.0969C507.56 76.5608 507.437 77.1559 507.437 77.6453H509.92C509.92 77.5387 509.946 77.6868 509.78 77.8528C509.614 78.0188 509.466 77.993 509.572 77.993V75.5097ZM507.437 77.6453V106.074H509.92V77.6453H507.437ZM507.437 106.074C507.437 106.563 507.56 107.158 508.024 107.622C508.488 108.086 509.083 108.209 509.572 108.209V105.726C509.466 105.726 509.614 105.7 509.78 105.866C509.946 106.032 509.92 106.18 509.92 106.074H507.437ZM509.572 108.209H546.941V105.726H509.572V108.209ZM546.941 108.209C547.146 108.209 547.255 108.264 547.378 108.428L549.364 106.938C548.772 106.149 547.927 105.726 546.941 105.726V108.209ZM547.626 108.676C547.79 108.799 547.845 108.908 547.845 109.113H550.328C550.328 108.127 549.905 107.282 549.116 106.69L547.626 108.676ZM547.845 109.113V126.457H550.328V109.113H547.845ZM547.845 126.457C547.845 126.679 547.77 126.91 547.493 127.188L549.249 128.944C549.925 128.267 550.328 127.426 550.328 126.457H547.845ZM547.493 127.188C547.409 127.271 547.271 127.36 546.941 127.36V129.844C547.803 129.844 548.617 129.575 549.249 128.944L547.493 127.188ZM546.941 127.36H485.614V129.844H546.941V127.36ZM485.614 127.36C485.286 127.36 485.011 127.269 484.75 127.072L483.26 129.059C483.951 129.578 484.749 129.844 485.614 129.844V127.36ZM484.998 127.321C484.801 127.059 484.71 126.784 484.71 126.457H482.227C482.227 127.321 482.492 128.119 483.011 128.811L484.998 127.321ZM484.71 126.457V5.59071H482.227V126.457H484.71ZM484.71 5.59071C484.71 5.26075 484.799 5.12183 484.883 5.03831L483.127 3.28238C482.495 3.91404 482.227 4.7287 482.227 5.59071H484.71ZM484.883 5.03831C485.16 4.76104 485.391 4.68679 485.614 4.68679V2.20352C484.644 2.20352 483.803 2.60607 483.127 3.28237L484.883 5.03831ZM485.614 4.68679H546.941V2.20352H485.614V4.68679ZM546.941 4.68679C547.146 4.68679 547.255 4.74118 547.378 4.90532L549.364 3.41536C548.772 2.62592 547.927 2.20352 546.941 2.20352V4.68679ZM547.626 5.15365C547.79 5.27676 547.845 5.38554 547.845 5.59071H550.328C550.328 4.60391 549.905 3.75912 549.116 3.16704L547.626 5.15365ZM547.845 5.59071V22.9339H550.328V5.59071H547.845ZM562.402 128.066L561.409 128.811L561.515 128.953L561.657 129.059L562.402 128.066ZM562.402 4.16034L561.524 3.28237L561.524 3.28238L562.402 4.16034ZM622.478 12.9213L621.616 13.8154L621.616 13.8154L622.478 12.9213ZM587.97 106.968V108.209H587.984L587.998 108.209L587.97 106.968ZM596.016 106.789L596.043 108.03L596.053 108.03L596.062 108.03L596.016 106.789ZM603.883 102.677L602.9 101.917L602.9 101.917L603.883 102.677ZM607.101 92.3066L608.342 92.341L608.343 92.3238V92.3066H607.101ZM604.062 29.0129L603.079 29.7721L603.079 29.7721L604.062 29.0129ZM564.011 127.36C563.684 127.36 563.409 127.269 563.147 127.072L561.657 129.059C562.349 129.578 563.147 129.844 564.011 129.844V127.36ZM563.396 127.321C563.199 127.059 563.107 126.784 563.107 126.457H560.624C560.624 127.321 560.89 128.119 561.409 128.811L563.396 127.321ZM563.107 126.457V5.59071H560.624V126.457H563.107ZM563.107 5.59071C563.107 5.26075 563.197 5.12183 563.28 5.03831L561.524 3.28238C560.893 3.91404 560.624 4.7287 560.624 5.59071H563.107ZM563.28 5.03831C563.557 4.76104 563.789 4.68679 564.011 4.68679V2.20352C563.042 2.20352 562.201 2.60607 561.524 3.28237L563.28 5.03831ZM564.011 4.68679H596.373V2.20352H564.011V4.68679ZM596.373 4.68679C606.965 4.68679 615.335 7.76265 621.616 13.8154L623.339 12.0273C616.509 5.44512 607.476 2.20352 596.373 2.20352V4.68679ZM621.616 13.8154C627.891 19.8626 631.07 27.9235 631.07 38.1315H633.553C633.553 27.3608 630.175 18.6149 623.339 12.0273L621.616 13.8154ZM631.07 38.1315V93.9157H633.553V38.1315H631.07ZM631.07 93.9157C631.07 104.124 627.891 112.185 621.616 118.232L623.339 120.02C630.175 113.432 633.553 104.686 633.553 93.9157H631.07ZM621.616 118.232C615.335 124.285 606.965 127.36 596.373 127.36V129.844C607.476 129.844 616.509 126.602 623.339 120.02L621.616 118.232ZM596.373 127.36H564.011V129.844H596.373V127.36ZM585.834 106.074C585.834 106.563 585.958 107.158 586.422 107.622C586.886 108.086 587.481 108.209 587.97 108.209V105.726C587.863 105.726 588.011 105.7 588.177 105.866C588.343 106.032 588.318 106.18 588.318 106.074H585.834ZM587.998 108.209L596.043 108.03L595.988 105.548L587.942 105.726L587.998 108.209ZM596.062 108.03C599.66 107.896 602.621 106.34 604.865 103.436L602.9 101.917C601.092 104.258 598.808 105.443 595.97 105.548L596.062 108.03ZM604.865 103.436C607.094 100.551 608.218 96.8174 608.342 92.341L605.86 92.2721C605.746 96.3779 604.724 99.5573 602.9 101.917L604.865 103.436ZM608.343 92.3066V39.7407H605.859V92.3066H608.343ZM608.343 39.7407C608.343 35.036 607.291 31.1609 605.044 28.2537L603.079 29.7721C604.885 32.1096 605.859 35.3864 605.859 39.7407H608.343ZM605.044 28.2537C602.771 25.3122 599.659 23.8378 595.837 23.8378V26.3211C598.928 26.3211 601.299 27.469 603.079 29.7721L605.044 28.2537ZM595.837 23.8378H587.97V26.3211H595.837V23.8378ZM587.97 23.8378C587.481 23.8378 586.886 23.961 586.422 24.425C585.958 24.8889 585.834 25.484 585.834 25.9734H588.318C588.318 25.8668 588.343 26.0149 588.177 26.1809C588.012 26.3469 587.863 26.3211 587.97 26.3211V23.8378ZM585.834 25.9734V106.074H588.318V25.9734H585.834ZM750.098 21.6823L748.974 22.2099L748.981 22.2238L748.988 22.2376L750.098 21.6823ZM745.45 67.9904L744.524 67.1634L744.524 67.1634L745.45 67.9904ZM707.009 128.066L707.887 128.944L707.009 128.066ZM683.05 128.066L682.057 128.811L682.163 128.953L682.305 129.059L683.05 128.066ZM683.05 3.98155L682.172 3.10358L682.172 3.10358L683.05 3.98155ZM725.603 54.0443L724.634 53.2686L724.63 53.2736L725.603 54.0443ZM725.603 29.5493L724.615 30.3006L724.624 30.3129L724.634 30.325L725.603 29.5493ZM720.776 4.508C727.118 4.508 732.726 6.0616 737.638 9.14538L738.958 7.04232C733.618 3.68946 727.545 2.02473 720.776 2.02473V4.508ZM737.638 9.14538C742.548 12.2286 746.327 16.5698 748.974 22.2099L751.222 21.1547C748.387 15.1135 744.299 10.3957 738.958 7.04232L737.638 9.14538ZM748.988 22.2376C751.75 27.7617 753.148 34.1224 753.148 41.3498H755.631C755.631 33.7968 754.168 27.0458 751.209 21.127L748.988 22.2376ZM753.148 41.3498C753.148 52.206 750.235 60.7668 744.524 67.1634L746.376 68.8173C752.584 61.8639 755.631 52.6643 755.631 41.3498H753.148ZM744.524 67.1634C738.819 73.552 731.36 76.7613 722.028 76.7613V79.2445C732.005 79.2445 740.16 75.7787 746.376 68.8173L744.524 67.1634ZM722.028 76.7613H708.618V79.2445H722.028V76.7613ZM708.618 76.7613C708.128 76.7613 707.533 76.8845 707.069 77.3484C706.605 77.8124 706.482 78.4075 706.482 78.8969H708.966C708.966 78.7903 708.991 78.9384 708.825 79.1044C708.659 79.2704 708.511 79.2445 708.618 79.2445V76.7613ZM706.482 78.8969V126.457H708.966V78.8969H706.482ZM706.482 126.457C706.482 126.679 706.408 126.91 706.131 127.188L707.887 128.944C708.563 128.267 708.966 127.426 708.966 126.457H706.482ZM706.131 127.188C706.047 127.271 705.908 127.36 705.578 127.36V129.844C706.44 129.844 707.255 129.575 707.887 128.944L706.131 127.188ZM705.578 127.36H684.659V129.844H705.578V127.36ZM684.659 127.36C684.332 127.36 684.057 127.269 683.795 127.072L682.305 129.059C682.997 129.578 683.795 129.844 684.659 129.844V127.36ZM684.043 127.321C683.847 127.059 683.755 126.784 683.755 126.457H681.272C681.272 127.321 681.538 128.119 682.057 128.811L684.043 127.321ZM683.755 126.457V5.41192H681.272V126.457H683.755ZM683.755 5.41192C683.755 5.08196 683.845 4.94304 683.928 4.85952L682.172 3.10358C681.54 3.73525 681.272 4.5499 681.272 5.41192H683.755ZM683.928 4.85952C684.205 4.58225 684.437 4.508 684.659 4.508V2.02473C683.69 2.02473 682.848 2.42728 682.172 3.10358L683.928 4.85952ZM684.659 4.508H720.776V2.02473H684.659V4.508ZM716.485 59.577C720.659 59.577 724.065 57.9885 726.577 54.815L724.63 53.2736C722.613 55.8216 719.94 57.0938 716.485 57.0938V59.577ZM726.573 54.8199C729.185 51.5547 730.421 47.197 730.421 41.8862H727.938C727.938 46.8263 726.79 50.574 724.634 53.2687L726.573 54.8199ZM730.421 41.8862C730.421 36.4641 729.189 32.0434 726.573 28.7737L724.634 30.325C726.786 33.015 727.938 36.819 727.938 41.8862H730.421ZM726.592 28.798C724.087 25.5023 720.678 23.8378 716.485 23.8378V26.3211C719.92 26.3211 722.59 27.6365 724.615 30.3006L726.592 28.798ZM716.485 23.8378H708.618V26.3211H716.485V23.8378ZM708.618 23.8378C708.128 23.8378 707.533 23.961 707.069 24.425C706.605 24.8889 706.482 25.484 706.482 25.9734H708.966C708.966 25.8668 708.991 26.0149 708.825 26.1809C708.659 26.3469 708.511 26.3211 708.618 26.3211V23.8378ZM706.482 25.9734V57.4414H708.966V25.9734H706.482ZM706.482 57.4414C706.482 57.9308 706.605 58.5259 707.069 58.9899C707.533 59.4538 708.128 59.577 708.618 59.577V57.0938C708.511 57.0938 708.659 57.068 708.825 57.2339C708.991 57.3999 708.966 57.548 708.966 57.4414H706.482ZM708.618 59.577H716.485V57.0938H708.618V59.577ZM812.649 126.814L811.453 127.148L811.456 127.159L811.46 127.171L812.649 126.814ZM798.882 77.4665L800.078 77.1329L800.046 77.018L799.992 76.9112L798.882 77.4665ZM790.299 128.066L791.177 128.944L791.177 128.944L790.299 128.066ZM766.341 128.066L765.348 128.811L765.454 128.953L765.596 129.059L766.341 128.066ZM766.341 3.98155L765.463 3.10358L765.463 3.10358L766.341 3.98155ZM821.589 8.09385L820.928 9.14538L820.928 9.14538L821.589 8.09385ZM833.389 21.5035L832.269 22.04L832.274 22.0495L832.279 22.0588L833.389 21.5035ZM833.568 59.587L832.462 59.0219L832.457 59.0317L832.453 59.0416L833.568 59.587ZM822.483 72.2814L823.038 73.392L823.101 73.3607L823.159 73.3225L822.483 72.2814ZM821.946 72.8178L822.824 73.6958L822.967 73.5533L823.057 73.3731L821.946 72.8178ZM821.946 73.3542L823.132 72.9846L823.102 72.8887L823.057 72.799L821.946 73.3542ZM838.395 126.099L839.6 125.798L839.591 125.763L839.581 125.729L838.395 126.099ZM838.574 126.814H839.816V126.661L839.779 126.513L838.574 126.814ZM808.894 52.9715L807.94 52.1767L807.93 52.1886L807.921 52.2008L808.894 52.9715ZM808.894 29.3705L807.921 30.1412L807.93 30.1534L807.94 30.1654L808.894 29.3705ZM815.152 127.36C814.683 127.36 814.419 127.255 814.265 127.145C814.116 127.039 813.955 126.848 813.838 126.457L811.46 127.171C811.7 127.973 812.135 128.675 812.821 129.165C813.501 129.651 814.31 129.844 815.152 129.844V127.36ZM813.845 126.48L800.078 77.1329L797.686 77.8002L811.453 127.148L813.845 126.48ZM799.992 76.9112C799.659 76.2449 799.028 75.5097 797.988 75.5097V77.993C797.936 77.993 797.878 77.9838 797.82 77.9629C797.764 77.9424 797.725 77.9166 797.704 77.8997C797.684 77.8839 797.684 77.879 797.698 77.8986C797.713 77.9183 797.739 77.9569 797.771 78.0218L799.992 76.9112ZM797.988 75.5097H791.909V77.993H797.988V75.5097ZM791.909 75.5097C791.419 75.5097 790.824 75.6329 790.36 76.0969C789.896 76.5608 789.773 77.1559 789.773 77.6453H792.256C792.256 77.5387 792.282 77.6868 792.116 77.8528C791.95 78.0188 791.802 77.993 791.909 77.993V75.5097ZM789.773 77.6453V126.457H792.256V77.6453H789.773ZM789.773 126.457C789.773 126.679 789.699 126.91 789.422 127.188L791.177 128.944C791.854 128.267 792.256 127.426 792.256 126.457H789.773ZM789.422 127.188C789.338 127.271 789.199 127.36 788.869 127.36V129.844C789.731 129.844 790.546 129.575 791.177 128.944L789.422 127.188ZM788.869 127.36H767.95V129.844H788.869V127.36ZM767.95 127.36C767.623 127.36 767.348 127.269 767.086 127.072L765.596 129.059C766.288 129.578 767.085 129.844 767.95 129.844V127.36ZM767.334 127.321C767.138 127.059 767.046 126.784 767.046 126.457H764.563C764.563 127.321 764.829 128.119 765.348 128.811L767.334 127.321ZM767.046 126.457V5.41192H764.563V126.457H767.046ZM767.046 5.41192C767.046 5.08196 767.135 4.94304 767.219 4.85952L765.463 3.10358C764.831 3.73525 764.563 4.5499 764.563 5.41192H767.046ZM767.219 4.85952C767.496 4.58225 767.728 4.508 767.95 4.508V2.02473C766.98 2.02473 766.139 2.42728 765.463 3.10358L767.219 4.85952ZM767.95 4.508H804.067V2.02473H767.95V4.508ZM804.067 4.508C810.409 4.508 816.017 6.0616 820.928 9.14538L822.249 7.04232C816.909 3.68946 810.836 2.02473 804.067 2.02473V4.508ZM820.928 9.14538C825.845 12.2327 829.624 16.5195 832.269 22.04L834.509 20.967C831.671 15.0446 827.583 10.3916 822.249 7.04232L820.928 9.14538ZM832.279 22.0588C835.042 27.5856 836.439 33.8875 836.439 40.9922H838.922C838.922 33.555 837.458 26.8643 834.5 20.9482L832.279 22.0588ZM836.439 40.9922C836.439 47.8613 835.101 53.8601 832.462 59.0219L834.674 60.1521C837.518 54.5861 838.922 48.1884 838.922 40.9922H836.439ZM832.453 59.0416C829.924 64.2141 826.376 68.27 821.806 71.2404L823.159 73.3225C828.125 70.0947 831.968 65.6875 834.683 60.1323L832.453 59.0416ZM821.927 71.1709C821.449 71.4102 821.075 71.7839 820.836 72.2626L823.057 73.3731C823.059 73.3692 823.059 73.3692 823.057 73.3719C823.055 73.3746 823.052 73.3786 823.048 73.3829C823.043 73.3872 823.039 73.3904 823.037 73.3924C823.034 73.3943 823.034 73.3939 823.038 73.392L821.927 71.1709ZM821.068 71.9399C820.366 72.6423 820.64 73.5182 820.836 73.9095L823.057 72.799C823.045 72.7745 823.099 72.8667 823.099 73.0413C823.099 73.1366 823.082 73.2543 823.032 73.3795C822.981 73.5062 822.907 73.6128 822.824 73.6958L821.068 71.9399ZM820.761 73.7239L837.21 126.469L839.581 125.729L823.132 72.9846L820.761 73.7239ZM837.191 126.4L837.37 127.115L839.779 126.513L839.6 125.798L837.191 126.4ZM837.333 126.814C837.333 127.002 837.307 127.112 837.286 127.169C837.267 127.219 837.252 127.232 837.247 127.236C837.237 127.246 837.099 127.36 836.608 127.36V129.844C837.427 129.844 838.273 129.66 838.918 129.074C839.585 128.467 839.816 127.634 839.816 126.814H837.333ZM836.608 127.36H815.152V129.844H836.608V127.36ZM791.909 23.8378C791.419 23.8378 790.824 23.961 790.36 24.425C789.896 24.8889 789.773 25.484 789.773 25.9734H792.256C792.256 25.8668 792.282 26.0149 792.116 26.1809C791.95 26.3469 791.802 26.3211 791.909 26.3211V23.8378ZM789.773 25.9734V56.3686H792.256V25.9734H789.773ZM789.773 56.3686C789.773 56.858 789.896 57.4531 790.36 57.9171C790.824 58.3811 791.419 58.5043 791.909 58.5043V56.021C791.802 56.021 791.95 55.9952 792.116 56.1612C792.282 56.3271 792.256 56.4752 792.256 56.3686H789.773ZM791.909 58.5043H799.954V56.021H791.909V58.5043ZM799.954 58.5043C804.023 58.5043 807.364 56.9048 809.868 53.7422L807.921 52.2008C805.895 54.7597 803.276 56.021 799.954 56.021V58.5043ZM809.848 53.7664C812.469 50.6209 813.712 46.4355 813.712 41.3498H811.229C811.229 46.0382 810.087 49.6007 807.94 52.1767L809.848 53.7664ZM813.712 41.3498C813.712 36.0427 812.477 31.7308 809.848 28.5756L807.94 30.1654C810.079 32.7317 811.229 36.406 811.229 41.3498H813.712ZM809.868 28.5998C807.364 25.4372 804.023 23.8378 799.954 23.8378V26.3211C803.276 26.3211 805.895 27.5823 807.921 30.1412L809.868 28.5998ZM799.954 23.8378H791.909V26.3211H799.954V23.8378ZM858.01 120.377L857.14 121.263L858.01 120.377ZM858.01 11.6698L857.14 10.7838L857.14 10.7838L858.01 11.6698ZM910.576 11.6698L909.706 12.5558L909.714 12.5635L910.576 11.6698ZM910.576 120.377L909.714 119.484L909.706 119.491L910.576 120.377ZM892.339 105.001L893.264 105.829L893.275 105.817L893.285 105.805L892.339 105.001ZM892.339 27.225L891.393 28.0291L891.403 28.0411L891.413 28.0529L892.339 27.225ZM876.247 27.225L875.301 26.4208L875.297 26.4252L876.247 27.225ZM876.247 105.001L875.278 105.777L875.299 105.803L875.322 105.829L876.247 105.001ZM884.293 128.791C873.585 128.791 865.16 125.657 858.88 119.491L857.14 121.263C863.972 127.971 873.069 131.274 884.293 131.274V128.791ZM858.88 119.491C852.602 113.328 849.418 105.086 849.418 94.6309H846.935C846.935 105.631 850.307 114.554 857.14 121.263L858.88 119.491ZM849.418 94.6309V37.4163H846.935V94.6309H849.418ZM849.418 37.4163C849.418 26.9614 852.602 18.7197 858.88 12.5557L857.14 10.7838C850.307 17.4931 846.935 26.4158 846.935 37.4163H849.418ZM858.88 12.5557C865.16 6.39024 873.585 3.25644 884.293 3.25644V0.773167C873.069 0.773167 863.972 4.076 857.14 10.7838L858.88 12.5557ZM884.293 3.25644C895.001 3.25644 903.426 6.39024 909.706 12.5557L911.446 10.7838C904.614 4.076 895.517 0.773167 884.293 0.773167V3.25644ZM909.714 12.5635C916.108 18.729 919.347 26.9681 919.347 37.4163H921.83C921.83 26.409 918.394 17.4838 911.438 10.776L909.714 12.5635ZM919.347 37.4163V94.6309H921.83V37.4163H919.347ZM919.347 94.6309C919.347 105.079 916.108 113.318 909.714 119.484L911.438 121.271C918.394 114.563 921.83 105.638 921.83 94.6309H919.347ZM909.706 119.491C903.426 125.657 895.001 128.791 884.293 128.791V131.274C895.517 131.274 904.614 127.971 911.446 121.263L909.706 119.491ZM884.293 109.64C887.945 109.64 890.977 108.385 893.264 105.829L891.413 104.173C889.647 106.147 887.316 107.157 884.293 107.157V109.64ZM893.285 105.805C895.541 103.15 896.62 99.7455 896.62 95.7037H894.137C894.137 99.2905 893.189 102.084 891.393 104.197L893.285 105.805ZM896.62 95.7037V36.3435H894.137V95.7037H896.62ZM896.62 36.3435C896.62 32.3046 895.542 28.9433 893.264 26.3971L891.413 28.0529C893.188 30.0362 894.137 32.7539 894.137 36.3435H896.62ZM893.285 26.4208C891.005 23.7389 887.967 22.4074 884.293 22.4074V24.8907C887.294 24.8907 889.62 25.9431 891.393 28.0291L893.285 26.4208ZM884.293 22.4074C880.619 22.4074 877.581 23.7389 875.301 26.4208L877.193 28.0291C878.966 25.9431 881.292 24.8907 884.293 24.8907V22.4074ZM875.297 26.4252C873.153 28.9718 872.145 32.3226 872.145 36.3435H874.628C874.628 32.7359 875.527 30.0076 877.197 28.0248L875.297 26.4252ZM872.145 36.3435V95.7037H874.628V36.3435H872.145ZM872.145 95.7037C872.145 99.728 873.154 103.122 875.278 105.777L877.217 104.225C875.526 102.112 874.628 99.308 874.628 95.7037H872.145ZM875.322 105.829C877.608 108.385 880.641 109.64 884.293 109.64V107.157C881.27 107.157 878.939 106.147 877.172 104.173L875.322 105.829ZM938.764 120.914L937.903 121.808L937.912 121.817L938.764 120.914ZM929.645 82.6516L930.523 83.5296L930.523 83.5296L929.645 82.6516ZM953.604 82.6516L952.611 83.3966L952.717 83.5385L952.859 83.6449L953.604 82.6516ZM957.001 105.18L957.955 104.385L957.955 104.385L957.001 105.18ZM971.484 105.18L970.556 104.355L970.542 104.37L970.53 104.385L971.484 105.18ZM974.881 4.16034L974.003 3.28237L974.003 3.28238L974.881 4.16034ZM998.839 4.16034L997.846 4.90532L997.952 5.04722L998.094 5.15365L998.839 4.16034ZM989.721 120.914L990.573 121.817L990.574 121.816L989.721 120.914ZM964.153 128.791C953.918 128.791 945.781 125.833 939.617 120.011L937.912 121.817C944.62 128.153 953.409 131.274 964.153 131.274V128.791ZM939.625 120.019C933.465 114.088 930.351 106.263 930.351 96.4189H927.867C927.867 106.839 931.19 115.344 937.903 121.808L939.625 120.019ZM930.351 96.4189V84.082H927.867V96.4189H930.351ZM930.351 84.082C930.351 83.752 930.44 83.6131 930.523 83.5296L928.768 81.7736C928.136 82.4053 927.867 83.2199 927.867 84.082H930.351ZM930.523 83.5296C930.801 83.2523 931.032 83.178 931.255 83.178V80.6948C930.285 80.6948 929.444 81.0973 928.768 81.7736L930.523 83.5296ZM931.255 83.178H952.174V80.6948H931.255V83.178ZM952.174 83.178C952.379 83.178 952.488 83.2324 952.611 83.3966L954.597 81.9066C954.005 81.1172 953.161 80.6948 952.174 80.6948V83.178ZM952.859 83.6449C953.023 83.768 953.078 83.8768 953.078 84.082H955.561C955.561 83.0952 955.139 82.2504 954.349 81.6583L952.859 83.6449ZM953.078 84.082V96.7764H955.561V84.082H953.078ZM953.078 96.7764C953.078 100.452 954.032 103.557 956.047 105.975L957.955 104.385C956.394 102.512 955.561 100.014 955.561 96.7764H953.078ZM956.047 105.975C958.089 108.424 960.833 109.64 964.153 109.64V107.157C961.513 107.157 959.49 106.226 957.955 104.385L956.047 105.975ZM964.153 109.64C967.575 109.64 970.386 108.437 972.437 105.975L970.53 104.385C969.005 106.214 966.929 107.157 964.153 107.157V109.64ZM972.412 106.005C974.56 103.587 975.586 100.472 975.586 96.7764H973.103C973.103 99.9943 972.221 102.481 970.556 104.355L972.412 106.005ZM975.586 96.7764V5.59071H973.103V96.7764H975.586ZM975.586 5.59071C975.586 5.26075 975.675 5.12183 975.759 5.03831L974.003 3.28238C973.371 3.91404 973.103 4.7287 973.103 5.59071H975.586ZM975.759 5.03831C976.036 4.76104 976.268 4.68679 976.49 4.68679V2.20352C975.52 2.20352 974.679 2.60607 974.003 3.28237L975.759 5.03831ZM976.49 4.68679H997.409V2.20352H976.49V4.68679ZM997.409 4.68679C997.614 4.68679 997.723 4.74118 997.846 4.90532L999.833 3.41536C999.241 2.62592 998.396 2.20352 997.409 2.20352V4.68679ZM998.094 5.15365C998.259 5.27676 998.313 5.38554 998.313 5.59071H1000.8C1000.8 4.60391 1000.37 3.75912 999.584 3.16704L998.094 5.15365ZM998.313 5.59071V96.4189H1000.8V5.59071H998.313ZM998.313 96.4189C998.313 106.255 995.144 114.078 988.868 120.012L990.574 121.816C997.409 115.353 1000.8 106.846 1000.8 96.4189H998.313ZM988.868 120.011C982.706 125.831 974.511 128.791 964.153 128.791V131.274C975.012 131.274 983.862 128.155 990.573 121.817L988.868 120.011ZM1079.17 24.543L1080.05 25.421L1080.05 25.421L1079.17 24.543ZM1063.26 55.8323L1062.26 56.5772L1062.37 56.7191L1062.51 56.8256L1063.26 55.8323ZM1079.17 107.683L1078.18 108.428L1078.28 108.57L1078.43 108.676L1079.17 107.683ZM1079.17 128.066L1078.29 127.188L1078.29 127.188L1079.17 128.066ZM1014.8 128.066L1013.81 128.811L1013.92 128.953L1014.06 129.059L1014.8 128.066ZM1014.8 4.16034L1013.93 3.28237L1013.93 3.28238L1014.8 4.16034ZM1079.17 4.16034L1078.18 4.90532L1078.28 5.04722L1078.43 5.15365L1079.17 4.16034ZM1078.64 22.9339C1078.64 23.1562 1078.57 23.3878 1078.29 23.6651L1080.05 25.421C1080.72 24.7447 1081.13 23.9035 1081.13 22.9339H1078.64ZM1078.29 23.6651C1078.21 23.7486 1078.07 23.8378 1077.74 23.8378V26.3211C1078.6 26.3211 1079.42 26.0527 1080.05 25.421L1078.29 23.6651ZM1077.74 23.8378H1040.37V26.3211H1077.74V23.8378ZM1040.37 23.8378C1039.88 23.8378 1039.29 23.961 1038.82 24.425C1038.36 24.8889 1038.24 25.484 1038.24 25.9734H1040.72C1040.72 25.8668 1040.75 26.0149 1040.58 26.1809C1040.41 26.3469 1040.27 26.3211 1040.37 26.3211V23.8378ZM1038.24 25.9734V54.2231H1040.72V25.9734H1038.24ZM1038.24 54.2231C1038.24 54.7125 1038.36 55.3076 1038.82 55.7716C1039.29 56.2355 1039.88 56.3587 1040.37 56.3587V53.8754C1040.27 53.8754 1040.41 53.8496 1040.58 54.0156C1040.75 54.1816 1040.72 54.3297 1040.72 54.2231H1038.24ZM1040.37 56.3587H1061.83V53.8754H1040.37V56.3587ZM1061.83 56.3587C1062.03 56.3587 1062.14 56.4131 1062.26 56.5772L1064.25 55.0873C1063.66 54.2978 1062.81 53.8754 1061.83 53.8754V56.3587ZM1062.51 56.8256C1062.68 56.9487 1062.73 57.0575 1062.73 57.2626H1065.21C1065.21 56.2758 1064.79 55.431 1064 54.839L1062.51 56.8256ZM1062.73 57.2626V74.6058H1065.21V57.2626H1062.73ZM1062.73 74.6058C1062.73 74.8281 1062.66 75.0597 1062.38 75.337L1064.14 77.0929C1064.81 76.4166 1065.21 75.5754 1065.21 74.6058H1062.73ZM1062.38 75.337C1062.3 75.4205 1062.16 75.5097 1061.83 75.5097V77.993C1062.69 77.993 1063.5 77.7246 1064.14 77.0929L1062.38 75.337ZM1061.83 75.5097H1040.37V77.993H1061.83V75.5097ZM1040.37 75.5097C1039.88 75.5097 1039.29 75.6329 1038.82 76.0969C1038.36 76.5608 1038.24 77.1559 1038.24 77.6453H1040.72C1040.72 77.5387 1040.75 77.6868 1040.58 77.8528C1040.41 78.0188 1040.27 77.993 1040.37 77.993V75.5097ZM1038.24 77.6453V106.074H1040.72V77.6453H1038.24ZM1038.24 106.074C1038.24 106.563 1038.36 107.158 1038.82 107.622C1039.29 108.086 1039.88 108.209 1040.37 108.209V105.726C1040.27 105.726 1040.41 105.7 1040.58 105.866C1040.75 106.032 1040.72 106.18 1040.72 106.074H1038.24ZM1040.37 108.209H1077.74V105.726H1040.37V108.209ZM1077.74 108.209C1077.95 108.209 1078.05 108.264 1078.18 108.428L1080.16 106.938C1079.57 106.149 1078.73 105.726 1077.74 105.726V108.209ZM1078.43 108.676C1078.59 108.799 1078.64 108.908 1078.64 109.113H1081.13C1081.13 108.127 1080.7 107.282 1079.92 106.69L1078.43 108.676ZM1078.64 109.113V126.457H1081.13V109.113H1078.64ZM1078.64 126.457C1078.64 126.679 1078.57 126.91 1078.29 127.188L1080.05 128.944C1080.72 128.267 1081.13 127.426 1081.13 126.457H1078.64ZM1078.29 127.188C1078.21 127.271 1078.07 127.36 1077.74 127.36V129.844C1078.6 129.844 1079.42 129.575 1080.05 128.944L1078.29 127.188ZM1077.74 127.36H1016.41V129.844H1077.74V127.36ZM1016.41 127.36C1016.09 127.36 1015.81 127.269 1015.55 127.072L1014.06 129.059C1014.75 129.578 1015.55 129.844 1016.41 129.844V127.36ZM1015.8 127.321C1015.6 127.059 1015.51 126.784 1015.51 126.457H1013.03C1013.03 127.321 1013.29 128.119 1013.81 128.811L1015.8 127.321ZM1015.51 126.457V5.59071H1013.03V126.457H1015.51ZM1015.51 5.59071C1015.51 5.26075 1015.6 5.12183 1015.68 5.03831L1013.93 3.28238C1013.29 3.91404 1013.03 4.7287 1013.03 5.59071H1015.51ZM1015.68 5.03831C1015.96 4.76104 1016.19 4.68679 1016.41 4.68679V2.20352C1015.44 2.20352 1014.6 2.60607 1013.93 3.28237L1015.68 5.03831ZM1016.41 4.68679H1077.74V2.20352H1016.41V4.68679ZM1077.74 4.68679C1077.95 4.68679 1078.05 4.74118 1078.18 4.90532L1080.16 3.41536C1079.57 2.62592 1078.73 2.20352 1077.74 2.20352V4.68679ZM1078.43 5.15365C1078.59 5.27676 1078.64 5.38554 1078.64 5.59071H1081.13C1081.13 4.60391 1080.7 3.75912 1079.92 3.16704L1078.43 5.15365ZM1078.64 5.59071V22.9339H1081.13V5.59071H1078.64ZM1100.53 120.556L1099.65 121.434L1099.66 121.442L1099.67 121.45L1100.53 120.556ZM1100.53 11.491L1099.67 10.5968L1099.66 10.6048L1100.53 11.491ZM1152.38 11.491L1151.51 12.3771L1151.52 12.385L1152.38 11.491ZM1161.5 40.4558L1160.62 39.5779L1160.62 39.5779L1161.5 40.4558ZM1160.07 40.9922V39.7506H1160.04L1160.02 39.7517L1160.07 40.9922ZM1139.15 41.8862V43.1278H1139.18L1139.2 43.1267L1139.15 41.8862ZM1118.95 105.359L1118.02 106.184L1118.03 106.197L1118.04 106.21L1118.95 105.359ZM1134.15 105.359L1135.05 106.21L1135.06 106.197L1135.07 106.184L1134.15 105.359ZM1137.54 90.6974L1136.66 89.8194L1136.66 89.8194L1137.54 90.6974ZM1139.15 89.9822L1139.2 88.7417L1139.18 88.7406H1139.15V89.9822ZM1160.07 90.8762L1160.02 92.1167L1160.04 92.1178H1160.07V90.8762ZM1152.38 120.556L1153.24 121.45L1153.25 121.442L1152.38 120.556ZM1126.46 128.791C1115.99 128.791 1107.68 125.717 1101.39 119.662L1099.67 121.45C1106.5 128.03 1115.47 131.274 1126.46 131.274V128.791ZM1101.41 119.678C1095.25 113.516 1092.12 105.271 1092.12 94.8097H1089.64C1089.64 105.803 1092.94 114.724 1099.65 121.434L1101.41 119.678ZM1092.12 94.8097V36.8799H1089.64V94.8097H1092.12ZM1092.12 36.8799C1092.12 26.5413 1095.24 18.4201 1101.4 12.3771L1099.66 10.6048C1092.95 17.1967 1089.64 26.0015 1089.64 36.8799H1092.12ZM1101.39 12.385C1107.68 6.32978 1115.99 3.25644 1126.46 3.25644V0.773167C1115.47 0.773167 1106.5 4.01726 1099.67 10.5969L1101.39 12.385ZM1126.46 3.25644C1137.05 3.25644 1145.35 6.33243 1151.51 12.3771L1153.25 10.6048C1146.54 4.01461 1137.56 0.773167 1126.46 0.773167V3.25644ZM1151.52 12.385C1157.79 18.4295 1160.97 26.5481 1160.97 36.8799H1163.46C1163.46 25.9947 1160.08 17.1873 1153.24 10.5969L1151.52 12.385ZM1160.97 36.8799V38.8467H1163.46V36.8799H1160.97ZM1160.97 38.8467C1160.97 39.069 1160.9 39.3006 1160.62 39.5779L1162.38 41.3338C1163.06 40.6575 1163.46 39.8163 1163.46 38.8467H1160.97ZM1160.62 39.5779C1160.54 39.6614 1160.4 39.7506 1160.07 39.7506V42.2339C1160.93 42.2339 1161.75 41.9655 1162.38 41.3338L1160.62 39.5779ZM1160.02 39.7517L1139.1 40.6457L1139.2 43.1267L1160.12 42.2327L1160.02 39.7517ZM1139.15 40.6446C1138.6 40.6446 1138.42 40.5164 1138.38 40.4792C1138.36 40.4608 1138.25 40.3545 1138.25 39.9195H1135.76C1135.76 40.7956 1136.01 41.6726 1136.7 42.3098C1137.38 42.9282 1138.27 43.1278 1139.15 43.1278V40.6446ZM1138.25 39.9195V35.2708H1135.76V39.9195H1138.25ZM1138.25 35.2708C1138.25 31.5752 1137.22 28.4597 1135.07 26.0425L1133.22 27.6923C1134.88 29.5661 1135.76 32.0529 1135.76 35.2708H1138.25ZM1135.07 26.0425C1132.9 23.5981 1129.98 22.4074 1126.46 22.4074V24.8907C1129.37 24.8907 1131.58 25.8456 1133.22 27.6923L1135.07 26.0425ZM1126.46 22.4074C1123.04 22.4074 1120.18 23.609 1118.02 26.0425L1119.88 27.6923C1121.53 25.8347 1123.68 24.8907 1126.46 24.8907V22.4074ZM1118.02 26.0425C1115.87 28.4597 1114.85 31.5752 1114.85 35.2708H1117.33C1117.33 32.0529 1118.21 29.5661 1119.88 27.6923L1118.02 26.0425ZM1114.85 35.2708V96.9552H1117.33V35.2708H1114.85ZM1114.85 96.9552C1114.85 100.651 1115.87 103.766 1118.02 106.184L1119.88 104.534C1118.21 102.66 1117.33 100.173 1117.33 96.9552H1114.85ZM1118.04 106.21C1120.21 108.515 1123.06 109.64 1126.46 109.64V107.157C1123.66 107.157 1121.5 106.255 1119.85 104.508L1118.04 106.21ZM1126.46 109.64C1129.96 109.64 1132.87 108.525 1135.05 106.21L1133.24 104.508C1131.61 106.245 1129.39 107.157 1126.46 107.157V109.64ZM1135.07 106.184C1137.22 103.766 1138.25 100.651 1138.25 96.9552H1135.76C1135.76 100.173 1134.88 102.66 1133.22 104.534L1135.07 106.184ZM1138.25 96.9552V92.1278H1135.76V96.9552H1138.25ZM1138.25 92.1278C1138.25 91.7978 1138.34 91.6589 1138.42 91.5754L1136.66 89.8194C1136.03 90.4511 1135.76 91.2657 1135.76 92.1278H1138.25ZM1138.42 91.5754C1138.7 91.2981 1138.93 91.2238 1139.15 91.2238V88.7406C1138.18 88.7406 1137.34 89.1431 1136.66 89.8194L1138.42 91.5754ZM1139.1 91.2227L1160.02 92.1167L1160.12 89.6357L1139.2 88.7417L1139.1 91.2227ZM1160.07 92.1178C1160.62 92.1178 1160.8 92.246 1160.84 92.2832C1160.86 92.3016 1160.97 92.4079 1160.97 92.8429H1163.46C1163.46 91.9668 1163.21 91.0898 1162.52 90.4526C1161.84 89.8342 1160.95 89.6346 1160.07 89.6346V92.1178ZM1160.97 92.8429V94.8097H1163.46V92.8429H1160.97ZM1160.97 94.8097C1160.97 105.265 1157.79 113.506 1151.51 119.67L1153.25 121.442C1160.09 114.733 1163.46 105.81 1163.46 94.8097H1160.97ZM1151.52 119.662C1145.24 125.717 1136.93 128.791 1126.46 128.791V131.274C1137.45 131.274 1146.42 128.03 1153.24 121.45L1151.52 119.662ZM1246.41 4.16034L1245.41 4.90533L1245.52 5.04722L1245.66 5.15365L1246.41 4.16034ZM1246.41 24.543L1247.28 25.421L1247.28 25.421L1246.41 24.543ZM1221.02 128.066L1220.14 127.188L1220.14 127.188L1221.02 128.066ZM1197.06 128.066L1196.06 128.811L1196.17 128.953L1196.31 129.059L1197.06 128.066ZM1172.56 24.543L1171.57 25.288L1171.68 25.4299L1171.82 25.5364L1172.56 24.543ZM1172.56 4.16034L1171.68 3.28237L1171.68 3.28238L1172.56 4.16034ZM1244.98 4.68679C1245.18 4.68679 1245.29 4.74119 1245.41 4.90533L1247.4 3.41536C1246.81 2.62592 1245.96 2.20352 1244.98 2.20352V4.68679ZM1245.66 5.15365C1245.82 5.27676 1245.88 5.38554 1245.88 5.59071H1248.36C1248.36 4.60391 1247.94 3.75912 1247.15 3.16704L1245.66 5.15365ZM1245.88 5.59071V22.9339H1248.36V5.59071H1245.88ZM1245.88 22.9339C1245.88 23.1562 1245.8 23.3878 1245.53 23.6651L1247.28 25.421C1247.96 24.7447 1248.36 23.9035 1248.36 22.9339H1245.88ZM1245.53 23.6651C1245.44 23.7486 1245.31 23.8378 1244.98 23.8378V26.3211C1245.84 26.3211 1246.65 26.0527 1247.28 25.421L1245.53 23.6651ZM1244.98 23.8378H1222.63V26.3211H1244.98V23.8378ZM1222.63 23.8378C1222.14 23.8378 1221.54 23.961 1221.08 24.425C1220.61 24.8889 1220.49 25.484 1220.49 25.9734H1222.97C1222.97 25.8668 1223 26.0149 1222.83 26.1809C1222.67 26.3469 1222.52 26.3211 1222.63 26.3211V23.8378ZM1220.49 25.9734V126.457H1222.97V25.9734H1220.49ZM1220.49 126.457C1220.49 126.679 1220.42 126.91 1220.14 127.188L1221.89 128.944C1222.57 128.267 1222.97 127.426 1222.97 126.457H1220.49ZM1220.14 127.188C1220.06 127.271 1219.92 127.36 1219.59 127.36V129.844C1220.45 129.844 1221.26 129.575 1221.89 128.944L1220.14 127.188ZM1219.59 127.36H1198.67V129.844H1219.59V127.36ZM1198.67 127.36C1198.34 127.36 1198.06 127.269 1197.8 127.072L1196.31 129.059C1197 129.578 1197.8 129.844 1198.67 129.844V127.36ZM1198.05 127.321C1197.85 127.059 1197.76 126.784 1197.76 126.457H1195.28C1195.28 127.321 1195.55 128.119 1196.06 128.811L1198.05 127.321ZM1197.76 126.457V25.9734H1195.28V126.457H1197.76ZM1197.76 25.9734C1197.76 25.484 1197.64 24.8889 1197.18 24.425C1196.71 23.961 1196.12 23.8378 1195.63 23.8378V26.3211C1195.73 26.3211 1195.59 26.3469 1195.42 26.1809C1195.25 26.0149 1195.28 25.8668 1195.28 25.9734H1197.76ZM1195.63 23.8378H1174.17V26.3211H1195.63V23.8378ZM1174.17 23.8378C1173.84 23.8378 1173.57 23.7461 1173.31 23.5497L1171.82 25.5364C1172.51 26.0551 1173.31 26.3211 1174.17 26.3211V23.8378ZM1173.56 23.7981C1173.36 23.5362 1173.27 23.2612 1173.27 22.9339H1170.78C1170.78 23.7985 1171.05 24.5963 1171.57 25.288L1173.56 23.7981ZM1173.27 22.9339V5.59071H1170.78V22.9339H1173.27ZM1173.27 5.59071C1173.27 5.26075 1173.36 5.12183 1173.44 5.03831L1171.68 3.28238C1171.05 3.91404 1170.78 4.7287 1170.78 5.59071H1173.27ZM1173.44 5.03831C1173.72 4.76104 1173.95 4.68679 1174.17 4.68679V2.20352C1173.2 2.20352 1172.36 2.60607 1171.68 3.28237L1173.44 5.03831ZM1174.17 4.68679H1244.98V2.20352H1174.17V4.68679ZM1273.9 125.92L1273.32 127.02L1273.32 127.02L1273.9 125.92ZM1261.74 114.477L1260.66 115.093L1260.67 115.104L1261.74 114.477ZM1257.99 90.161L1258.86 91.039L1258.86 91.039L1257.99 90.161ZM1281.59 90.161L1280.59 90.906L1280.7 91.0479L1280.84 91.1543L1281.59 90.161ZM1284.98 105.001L1284.01 105.77L1284.02 105.786L1284.04 105.801L1284.98 105.001ZM1299.29 105.18L1298.36 104.355L1298.36 104.355L1299.29 105.18ZM1298.57 87.6579L1297.63 88.4694L1297.65 88.4923L1297.67 88.5142L1298.57 87.6579ZM1284.81 76.215L1285.53 75.2093L1285.53 75.2073L1284.81 76.215ZM1260.85 52.4351L1261.94 51.8481L1261.94 51.8481L1260.85 52.4351ZM1266.39 11.1334L1267.25 12.0281L1266.39 11.1334ZM1316.63 11.491L1315.76 12.3771L1315.76 12.3771L1316.63 11.491ZM1301.97 42.2438L1300.98 42.9888L1301.08 43.1307L1301.23 43.2371L1301.97 42.2438ZM1298.57 27.0462L1297.6 27.8155L1297.62 27.844L1297.65 27.8711L1298.57 27.0462ZM1284.27 26.8674L1283.32 26.0725L1283.31 26.0781L1284.27 26.8674ZM1285.16 44.9257L1286.12 44.135L1286.12 44.135L1285.16 44.9257ZM1298.39 56.3686L1297.65 57.3641L1297.66 57.3689L1297.67 57.3735L1298.39 56.3686ZM1315.02 69.5995L1314.17 70.5062L1314.19 70.5204L1314.2 70.5339L1315.02 69.5995ZM1323.78 80.8636L1322.67 81.4061L1322.67 81.4189L1322.68 81.4315L1323.78 80.8636ZM1317.35 120.735L1316.49 119.841L1316.49 119.841L1317.35 120.735ZM1292.14 128.791C1285.39 128.791 1279.51 127.454 1274.47 124.82L1273.32 127.02C1278.77 129.869 1285.06 131.274 1292.14 131.274V128.791ZM1274.47 124.82C1269.43 122.181 1265.55 118.527 1262.81 113.85L1260.67 115.104C1263.65 120.202 1267.88 124.176 1273.32 127.02L1274.47 124.82ZM1262.82 113.861C1260.08 109.064 1258.69 103.559 1258.69 97.3128H1256.21C1256.21 103.94 1257.68 109.878 1260.66 115.093L1262.82 113.861ZM1258.69 97.3128V91.5914H1256.21V97.3128H1258.69ZM1258.69 91.5914C1258.69 91.2614 1258.78 91.1225 1258.86 91.039L1257.11 89.283C1256.48 89.9147 1256.21 90.7294 1256.21 91.5914H1258.69ZM1258.86 91.039C1259.14 90.7617 1259.37 90.6875 1259.6 90.6875V88.2042C1258.63 88.2042 1257.79 88.6067 1257.11 89.283L1258.86 91.039ZM1259.6 90.6875H1280.16V88.2042H1259.6V90.6875ZM1280.16 90.6875C1280.36 90.6875 1280.47 90.7418 1280.59 90.906L1282.58 89.416C1281.99 88.6266 1281.14 88.2042 1280.16 88.2042V90.6875ZM1280.84 91.1543C1281.01 91.2774 1281.06 91.3862 1281.06 91.5914H1283.54C1283.54 90.6046 1283.12 89.7598 1282.33 89.1677L1280.84 91.1543ZM1281.06 91.5914V96.0613H1283.54V91.5914H1281.06ZM1281.06 96.0613C1281.06 99.9562 1282.01 103.231 1284.01 105.77L1285.96 104.232C1284.39 102.241 1283.54 99.5566 1283.54 96.0613H1281.06ZM1284.04 105.801C1286.17 108.334 1288.9 109.64 1292.14 109.64V107.157C1289.66 107.157 1287.62 106.197 1285.93 104.201L1284.04 105.801ZM1292.14 109.64C1295.35 109.64 1298.07 108.414 1300.22 106.005L1298.36 104.355C1296.69 106.236 1294.64 107.157 1292.14 107.157V109.64ZM1300.22 106.005C1302.37 103.587 1303.39 100.472 1303.39 96.7764H1300.91C1300.91 99.9943 1300.03 102.481 1298.36 104.355L1300.22 106.005ZM1303.39 96.7764C1303.39 92.8939 1302.08 89.5443 1299.47 86.8016L1297.67 88.5142C1299.83 90.7778 1300.91 93.5072 1300.91 96.7764H1303.39ZM1299.51 86.8463C1297.14 84.1025 1292.45 80.2137 1285.53 75.2093L1284.08 77.2206C1290.99 82.2287 1295.47 85.9686 1297.63 88.4694L1299.51 86.8463ZM1285.53 75.2073C1279.59 70.9317 1274.81 67.1468 1271.16 63.8506L1269.49 65.6935C1273.23 69.0723 1278.1 72.916 1284.08 77.2226L1285.53 75.2073ZM1271.16 63.8506C1267.58 60.6189 1264.5 56.6237 1261.94 51.8481L1259.75 53.0222C1262.44 58.0207 1265.68 62.2501 1269.49 65.6935L1271.16 63.8506ZM1261.94 51.8481C1259.43 47.1686 1258.16 41.7144 1258.16 35.4496H1255.67C1255.67 42.058 1257.02 47.9276 1259.75 53.0222L1261.94 51.8481ZM1258.16 35.4496C1258.16 25.5982 1261.22 17.8361 1267.25 12.0281L1265.53 10.2387C1258.93 16.5887 1255.67 25.0375 1255.67 35.4496H1258.16ZM1267.25 12.0281C1273.3 6.20899 1281.25 3.25644 1291.24 3.25644V0.773167C1280.73 0.773167 1272.12 3.89966 1265.53 10.2387L1267.25 12.0281ZM1291.24 3.25644C1301.46 3.25644 1309.6 6.32463 1315.76 12.3771L1317.5 10.6048C1310.79 4.02241 1302 0.773167 1291.24 0.773167V3.25644ZM1315.76 12.3771C1321.93 18.4284 1325.05 26.3762 1325.05 36.3435H1327.53C1327.53 25.809 1324.21 17.1884 1317.5 10.6048L1315.76 12.3771ZM1325.05 36.3435V40.6346H1327.53V36.3435H1325.05ZM1325.05 40.6346C1325.05 40.857 1324.97 41.0886 1324.69 41.3658L1326.45 43.1218C1327.13 42.4455 1327.53 41.6043 1327.53 40.6346H1325.05ZM1324.69 41.3658C1324.61 41.4493 1324.47 41.5385 1324.14 41.5385V44.0218C1325 44.0218 1325.82 43.7534 1326.45 43.1218L1324.69 41.3658ZM1324.14 41.5385H1303.58V44.0218H1324.14V41.5385ZM1303.58 41.5385C1303.25 41.5385 1302.98 41.4469 1302.72 41.2505L1301.23 43.2371C1301.92 43.7559 1302.72 44.0218 1303.58 44.0218V41.5385ZM1302.96 41.4988C1302.77 41.2369 1302.68 40.962 1302.68 40.6346H1300.19C1300.19 41.4993 1300.46 42.2971 1300.98 42.9888L1302.96 41.4988ZM1302.68 40.6346V35.8072H1300.19V40.6346H1302.68ZM1302.68 35.8072C1302.68 31.8977 1301.66 28.6533 1299.5 26.2213L1297.65 27.8711C1299.3 29.7302 1300.19 32.3264 1300.19 35.8072H1302.68ZM1299.55 26.2768C1297.51 23.6893 1294.69 22.4074 1291.24 22.4074V24.8907C1293.99 24.8907 1296.07 25.8736 1297.6 27.8155L1299.55 26.2768ZM1291.24 22.4074C1288.02 22.4074 1285.35 23.636 1283.32 26.0725L1285.22 27.6623C1286.77 25.8076 1288.74 24.8907 1291.24 24.8907V22.4074ZM1283.31 26.0781C1281.4 28.4021 1280.52 31.5821 1280.52 35.4496H1283.01C1283.01 31.9268 1283.8 29.3854 1285.23 27.6567L1283.31 26.0781ZM1280.52 35.4496C1280.52 39.3123 1281.76 42.7511 1284.21 45.7165L1286.12 44.135C1284.04 41.6173 1283.01 38.7386 1283.01 35.4496H1280.52ZM1284.21 45.7165C1286.57 48.5836 1291.09 52.4742 1297.65 57.3641L1299.14 55.3732C1292.58 50.4889 1288.28 46.751 1286.12 44.135L1284.21 45.7165ZM1297.67 57.3735C1305.04 62.727 1310.54 67.102 1314.17 70.5062L1315.87 68.6928C1312.12 65.1836 1306.53 60.738 1299.12 55.3638L1297.67 57.3735ZM1314.2 70.5339C1317.91 73.7723 1320.72 77.3969 1322.67 81.4061L1324.9 80.3212C1322.8 75.9866 1319.77 72.1017 1315.84 68.6651L1314.2 70.5339ZM1322.68 81.4315C1324.72 85.3933 1325.76 90.1369 1325.76 95.7037H1328.24C1328.24 89.8275 1327.14 84.6778 1324.89 80.2958L1322.68 81.4315ZM1325.76 95.7037C1325.76 105.919 1322.64 113.917 1316.49 119.841L1318.21 121.629C1324.93 115.156 1328.24 106.467 1328.24 95.7037H1325.76ZM1316.49 119.841C1310.32 125.78 1302.24 128.791 1292.14 128.791V131.274C1302.77 131.274 1311.5 128.086 1318.21 121.629L1316.49 119.841Z" fill="#040C19"/>
</svg>
