<svg width="50" height="50" viewBox="0 0 50 50" version="1.1" xmlns="http://www.w3.org/2000/svg" xmlns:xlink="http://www.w3.org/1999/xlink" xmlns:figma="http://www.figma.com/figma/ns">
<title>logo</title>
<desc>Created using Figma</desc>
<g id="Canvas" transform="translate(150 267)" figma:type="canvas">
<g id="logo" figma:type="frame">
<g id="Canvas" figma:type="frame">
<g id="logo" figma:type="frame">
<g id="Ellipse" figma:type="frame">
<g id="Vector" figma:type="vector">
<use xlink:href="#path0_fill" transform="translate(-150 -267)" fill="#2F58FC"/>
</g>
</g>
<g id="Vector" figma:type="frame">
<g id="Vector" figma:type="vector">
<use xlink:href="#path1_fill" transform="translate(-135 -252)" fill="#FFFFFF"/>
</g>
</g>
</g>
</g>
</g>
</g>
<defs>
<path id="path0_fill" d="M 50 25C 50 38.8071 38.8071 50 25 50C 11.1929 50 0 38.8071 0 25C 0 11.1929 11.1929 0 25 0C 38.8071 0 50 11.1929 50 25Z"/>
<path id="path1_fill" d="M 19.9757 5.47808C 19.8919 2.40817 17.3021 0 14.2386 0L 13.9364 0C 13.8897 0 13.8449 0.0185957 13.8119 0.0516968C 13.7789 0.084798 13.7603 0.129693 13.7603 0.176505L 13.7603 2.34271C 13.7603 2.38952 13.7789 2.43441 13.8119 2.46751C 13.8449 2.50062 13.8897 2.51921 13.9364 2.51921L 14.2738 2.51921C 16.0165 2.51921 17.4961 3.94858 17.4634 5.69502C 17.4479 6.51114 17.1135 7.28855 16.5323 7.86019C 15.9511 8.43184 15.1693 8.75207 14.3551 8.75209L 11.4228 8.75209C 11.3761 8.75209 11.3314 8.7335 11.2983 8.7004C 11.2653 8.6673 11.2468 8.6224 11.2468 8.57559L 11.2468 5.63597L 11.2468 2.52049L 11.2468 0.177788C 11.2468 0.130976 11.2282 0.0860809 11.1952 0.0529798C 11.1622 0.0198786 11.1174 0.00128297 11.0707 0.00128297L 8.90801 0.00128297C 8.86131 0.00128297 8.81653 0.0198786 8.78351 0.0529798C 8.75049 0.0860809 8.73194 0.130976 8.73194 0.177788L 8.73194 8.59869C 8.73203 8.62198 8.72751 8.64506 8.71866 8.66659C 8.70981 8.68812 8.6968 8.70768 8.68038 8.72415C 8.66395 8.74061 8.64444 8.75366 8.62296 8.76253C 8.60148 8.7714 8.57846 8.77593 8.55524 8.77584L 5.73821 8.77584C 2.67469 8.77584 0.0849436 11.184 0.00107298 14.2539C -0.0134005 14.9965 0.118676 15.7346 0.389711 16.4259C 0.660746 17.1171 1.06539 17.7478 1.58039 18.2817C 2.09538 18.8157 2.71057 19.2423 3.39059 19.5371C 4.0706 19.8319 4.80203 19.989 5.54282 19.9994C 6.28362 20.0099 7.01916 19.8734 7.70718 19.598C 8.39519 19.3225 9.02211 18.9134 9.55188 18.3942C 10.0817 17.875 10.5038 17.2559 10.7942 16.5726C 11.0845 15.8893 11.2372 15.1552 11.2436 14.4125L 11.2436 11.4497C 11.2436 11.4029 11.2621 11.358 11.2951 11.3249C 11.3282 11.2918 11.3729 11.2732 11.4196 11.2732L 14.3519 11.2732C 15.1039 11.2737 15.8483 11.1229 16.5411 10.8299C 17.2339 10.5368 17.8611 10.1074 18.3855 9.56711C 18.9098 9.02678 19.3207 8.38649 19.5939 7.68414C 19.867 6.98178 19.9969 6.23163 19.9757 5.47808ZM 5.62233 17.5279C 4.8081 17.5279 4.02637 17.2077 3.44515 16.636C 2.86392 16.0644 2.52958 15.287 2.51399 14.4709C 2.48134 12.7244 3.96092 11.2951 5.70363 11.2951L 8.55459 11.2951C 8.60129 11.2951 8.64608 11.3137 8.67909 11.3468C 8.71211 11.3799 8.73066 11.4247 8.73066 11.4716L 8.73066 14.4112C 8.73066 15.2377 8.4032 16.0303 7.82029 16.6148C 7.23738 17.1993 6.44677 17.5278 5.62233 17.5279Z"/>
</defs>
</svg>
