<svg xmlns="http://www.w3.org/2000/svg" style="display:none;">
	<symbol id="twitter-icon" viewBox="0 0 48 48">
		<path d="M48 4.7C46.2 5.5 44.3 6.1 42.3 6.3 44.4 5.1 45.9 3.1 46.7 0.7 44.8 1.9 42.7 2.7 40.4 3.2 38.6 1.2 36.1 0 33.2 0 27.8 0 23.4 4.5 23.4 10.1 23.4 10.9 23.5 11.7 23.6 12.4 15.5 12 8.2 8 3.3 1.8 2.5 3.3 2 5.1 2 6.9 2 10.4 3.7 13.5 6.4 15.3 4.8 15.3 3.3 14.8 1.9 14.1L1.9 14.2C1.9 19.1 5.3 23.2 9.8 24.1 9 24.3 8.1 24.5 7.2 24.5 6.6 24.5 6 24.4 5.4 24.3 6.6 28.3 10.3 31.2 14.6 31.3 11.2 34 7 35.6 2.3 35.6 1.6 35.6 0.8 35.6 0 35.5 4.4 38.3 9.5 40 15.1 40 33.2 40 43.1 24.6 43.1 11.3 43.1 10.8 43.1 10.4 43.1 10 45 8.5 46.7 6.8 48 4.7"/>
	</symbol>

	<symbol id="instagram-icon" viewBox="0 0 48 48">
		<path d="M24 0C17.5 0 16.7 0 14.1 0.1 11.6 0.3 9.8 0.7 8.3 1.3 6.7 1.9 5.4 2.7 4 4 2.7 5.4 1.9 6.7 1.3 8.3 0.7 9.8 0.3 11.6 0.1 14.1 0 16.7 0 17.5 0 24 0 30.5 0 31.3 0.1 33.9 0.3 36.4 0.7 38.2 1.3 39.7 1.9 41.3 2.7 42.6 4 44 5.4 45.3 6.7 46.1 8.3 46.7 9.8 47.3 11.6 47.7 14.1 47.9 16.7 48 17.5 48 24 48 30.5 48 31.3 48 33.9 47.9 36.4 47.7 38.2 47.3 39.7 46.7 41.3 46.1 42.6 45.3 44 44 45.3 42.6 46.1 41.3 46.7 39.7 47.3 38.2 47.7 36.4 47.9 33.9 48 31.3 48 30.5 48 24 48 17.5 48 16.7 47.9 14.1 47.7 11.6 47.3 9.8 46.7 8.3 46.1 6.7 45.3 5.4 44 4 42.6 2.7 41.3 1.9 39.7 1.3 38.2 0.7 36.4 0.3 33.9 0.1 31.3 0 30.5 0 24 0ZM24 4.3C30.4 4.3 31.2 4.3 33.7 4.5 36 4.6 37.3 5 38.2 5.3 39.3 5.7 40.1 6.2 40.9 7.1 41.8 7.9 42.3 8.7 42.7 9.8 43 10.7 43.4 12 43.5 14.3 43.7 16.8 43.7 17.6 43.7 24 43.7 30.4 43.7 31.2 43.5 33.7 43.4 36 43 37.3 42.7 38.2 42.3 39.3 41.8 40.1 40.9 40.9 40.1 41.8 39.3 42.3 38.2 42.7 37.3 43 36 43.4 33.7 43.5 31.2 43.7 30.4 43.7 24 43.7 17.6 43.7 16.8 43.7 14.3 43.5 12 43.4 10.7 43 9.8 42.7 8.7 42.3 7.9 41.8 7.1 40.9 6.2 40.1 5.7 39.3 5.3 38.2 5 37.3 4.6 36 4.5 33.7 4.3 31.2 4.3 30.4 4.3 24 4.3 17.6 4.3 16.8 4.5 14.3 4.6 12 5 10.7 5.3 9.8 5.7 8.7 6.2 7.9 7.1 7.1 7.9 6.2 8.7 5.7 9.8 5.3 10.7 5 12 4.6 14.3 4.5 16.8 4.3 17.6 4.3 24 4.3ZM24 11.7C17.2 11.7 11.7 17.2 11.7 24 11.7 30.8 17.2 36.3 24 36.3 30.8 36.3 36.3 30.8 36.3 24 36.3 17.2 30.8 11.7 24 11.7ZM24 32C19.6 32 16 28.4 16 24 16 19.6 19.6 16 24 16 28.4 16 32 19.6 32 24 32 28.4 28.4 32 24 32ZM39.7 11.2C39.7 12.8 38.4 14.1 36.8 14.1 35.2 14.1 33.9 12.8 33.9 11.2 33.9 9.6 35.2 8.3 36.8 8.3 38.4 8.3 39.7 9.6 39.7 11.2Z"/>
	</symbol>

	<symbol id="github-icon" viewBox="0 0 48 48">
		<path d="M24 0C10.7 0 0 10.8 0 24.1 0 34.7 6.9 43.8 16.4 47 17.6 47.2 18.1 46.4 18.1 45.8 18.1 45.2 18 43.7 18 41.7 11.3 43.2 9.9 38.5 9.9 38.5 8.8 35.7 7.3 34.9 7.3 34.9 5.1 33.5 7.4 33.5 7.4 33.5 9.8 33.7 11.1 36 11.1 36 13.3 39.6 16.7 38.6 18.1 38 18.3 36.4 18.9 35.3 19.6 34.7 14.3 34.1 8.7 32.1 8.7 22.8 8.7 20.2 9.6 18.1 11.2 16.4 10.9 15.8 10.1 13.3 11.4 10 11.4 10 13.4 9.3 18 12.5 19.9 11.9 22 11.7 24 11.7 26 11.7 28.1 11.9 30 12.5 34.6 9.3 36.6 10 36.6 10 37.9 13.3 37.1 15.8 36.8 16.4 38.4 18.1 39.3 20.2 39.3 22.8 39.3 32.1 33.7 34.1 28.4 34.7 29.2 35.5 30 36.9 30 39.2 30 42.4 30 45 30 45.8 30 46.4 30.4 47.2 31.6 47 41.1 43.8 48 34.7 48 24.1 48 10.8 37.3 0 24 0"/>
	</symbol>
	
	<symbol id="mute-icon" viewBox="0 0 24 24">
		<path d="M16.5 12c0-1.77-1.02-3.29-2.5-4.03v2.21l2.45 2.45c.03-.2.05-.41.05-.63zm2.5 0c0 .94-.2 1.82-.54 2.64l1.51 1.51C20.63 14.91 21 13.5 21 12c0-4.28-2.99-7.86-7-8.77v2.06c2.89.86 5 3.54 5 6.71zM4.27 3L3 4.27 7.73 9H3v6h4l5 5v-6.73l4.25 4.25c-.67.52-1.42.93-2.25 1.18v2.06c1.38-.31 2.63-.95 3.69-1.81L19.73 21 21 19.73l-9-9L4.27 3zM12 4L9.91 6.09 12 8.18V4z"/>
		<path d="M0 0h24v24H0z" fill="none"/>
	</symbol>

	<symbol id="volume-icon" viewBox="0 0 24 24">
		<path d="M3 9v6h4l5 5V4L7 9H3zm13.5 3c0-1.77-1.02-3.29-2.5-4.03v8.05c1.48-.73 2.5-2.25 2.5-4.02zM14 3.23v2.06c2.89.86 5 3.54 5 6.71s-2.11 5.85-5 6.71v2.06c4.01-.91 7-4.49 7-8.77s-2.99-7.86-7-8.77z"/>
		<path d="M0 0h24v24H0z" fill="none"/>
	</symbol>

	<symbol id="arrow-right" viewBox="0 0 24 24">
			<path d="M8.59 16.34l4.58-4.59-4.58-4.59L10 5.75l6 6-6 6z"/>
		<path d="M0-.25h24v24H0z" fill="none"/>
	</symbol>
</svg>